<mxfile host="Electron" agent="Mozilla/5.0 (Macintosh; Intel Mac OS X 10_15_7) AppleWebKit/537.36 (KHTML, like Gecko) draw.io/25.0.2 Chrome/128.0.6613.186 Electron/32.2.5 Safari/537.36" version="25.0.2">
  <diagram name="Page-1" id="6u1tHPWYEtg231CvSppE">
    <mxGraphModel dx="1012" dy="705" grid="1" gridSize="10" guides="1" tooltips="1" connect="1" arrows="1" fold="1" page="1" pageScale="1" pageWidth="850" pageHeight="1100" background="none" math="1" shadow="0">
      <root>
        <mxCell id="0" />
        <mxCell id="1" parent="0" />
        <mxCell id="Dn76FyQwGqLa-fIUbAuM-27" value="" style="labelPosition=right;align=left;strokeWidth=1;shape=mxgraph.mockup.markup.curlyBrace;html=1;shadow=0;dashed=0;strokeColor=#999999;direction=north;" parent="1" vertex="1">
          <mxGeometry x="390" y="170" width="10" height="50" as="geometry" />
        </mxCell>
        <mxCell id="ScXmN28w3UK9h5KrgkOw-204" value="" style="rounded=1;whiteSpace=wrap;html=1;fillColor=#60a917;strokeColor=#2D7600;container=0;fontColor=#ffffff;" parent="1" vertex="1">
          <mxGeometry x="400" y="159" width="10" height="10" as="geometry" />
        </mxCell>
        <mxCell id="ScXmN28w3UK9h5KrgkOw-205" value="" style="rounded=1;whiteSpace=wrap;html=1;fillColor=#60a917;strokeColor=#2D7600;container=0;fontColor=#ffffff;" parent="1" vertex="1">
          <mxGeometry x="400" y="149" width="10" height="10" as="geometry" />
        </mxCell>
        <mxCell id="ScXmN28w3UK9h5KrgkOw-206" value="" style="rounded=1;whiteSpace=wrap;html=1;fillColor=#60a917;strokeColor=#2D7600;container=0;fontColor=#ffffff;" parent="1" vertex="1">
          <mxGeometry x="400" y="139" width="10" height="10" as="geometry" />
        </mxCell>
        <mxCell id="ScXmN28w3UK9h5KrgkOw-207" value="" style="rounded=1;whiteSpace=wrap;html=1;fillColor=#60a917;strokeColor=#2D7600;container=0;fontColor=#ffffff;" parent="1" vertex="1">
          <mxGeometry x="400" y="129" width="10" height="10" as="geometry" />
        </mxCell>
        <mxCell id="ScXmN28w3UK9h5KrgkOw-208" value="" style="rounded=1;whiteSpace=wrap;html=1;fillColor=#60a917;strokeColor=#2D7600;container=0;fontColor=#ffffff;" parent="1" vertex="1">
          <mxGeometry x="400" y="119" width="10" height="10" as="geometry" />
        </mxCell>
        <mxCell id="ScXmN28w3UK9h5KrgkOw-209" value="" style="rounded=1;whiteSpace=wrap;html=1;fillColor=#D11200;strokeColor=#B20000;container=0;fontColor=#ffffff;" parent="1" vertex="1">
          <mxGeometry x="400" y="199" width="10" height="10" as="geometry" />
        </mxCell>
        <mxCell id="ScXmN28w3UK9h5KrgkOw-210" value="" style="rounded=1;whiteSpace=wrap;html=1;fillColor=#D11200;strokeColor=#B20000;container=0;fontColor=#ffffff;" parent="1" vertex="1">
          <mxGeometry x="400" y="209" width="10" height="10" as="geometry" />
        </mxCell>
        <mxCell id="ScXmN28w3UK9h5KrgkOw-211" value="" style="rounded=1;whiteSpace=wrap;html=1;fillColor=#0000FF;strokeColor=#0000CC;container=0;fontColor=#ffffff;" parent="1" vertex="1">
          <mxGeometry x="400" y="189" width="10" height="10" as="geometry" />
        </mxCell>
        <mxCell id="ScXmN28w3UK9h5KrgkOw-212" value="" style="rounded=1;whiteSpace=wrap;html=1;fillColor=#0000FF;strokeColor=#0000CC;container=0;fontColor=#ffffff;" parent="1" vertex="1">
          <mxGeometry x="400" y="179" width="10" height="10" as="geometry" />
        </mxCell>
        <mxCell id="ScXmN28w3UK9h5KrgkOw-213" value="" style="rounded=1;whiteSpace=wrap;html=1;fillColor=#0000FF;strokeColor=#0000CC;container=0;fontColor=#ffffff;" parent="1" vertex="1">
          <mxGeometry x="400" y="169" width="10" height="10" as="geometry" />
        </mxCell>
        <mxCell id="ScXmN28w3UK9h5KrgkOw-214" value="" style="rounded=1;whiteSpace=wrap;html=1;fillColor=#fa6800;strokeColor=#C73500;container=0;fontColor=#000000;" parent="1" vertex="1">
          <mxGeometry x="400" y="99" width="10" height="10" as="geometry" />
        </mxCell>
        <mxCell id="ScXmN28w3UK9h5KrgkOw-215" value="" style="rounded=1;whiteSpace=wrap;html=1;fillColor=#fa6800;strokeColor=#C73500;container=0;fontColor=#000000;" parent="1" vertex="1">
          <mxGeometry x="400" y="109" width="10" height="10" as="geometry" />
        </mxCell>
        <mxCell id="ScXmN28w3UK9h5KrgkOw-222" value="$$\mathbf{Z}$$" style="text;html=1;align=center;verticalAlign=middle;whiteSpace=wrap;rounded=0;" parent="1" vertex="1">
          <mxGeometry x="370" y="170" width="20" height="50" as="geometry" />
        </mxCell>
        <mxCell id="ScXmN28w3UK9h5KrgkOw-224" value="$$\mathbf{X}_t$$" style="text;html=1;align=center;verticalAlign=middle;whiteSpace=wrap;rounded=0;" parent="1" vertex="1">
          <mxGeometry x="370" y="119" width="20" height="50" as="geometry" />
        </mxCell>
        <mxCell id="ScXmN28w3UK9h5KrgkOw-225" value="$$\mathbf{A}$$" style="text;html=1;align=center;verticalAlign=middle;whiteSpace=wrap;rounded=0;" parent="1" vertex="1">
          <mxGeometry x="370" y="104" width="20" height="20" as="geometry" />
        </mxCell>
        <mxCell id="ScXmN28w3UK9h5KrgkOw-226" value="" style="rounded=1;whiteSpace=wrap;html=1;fillColor=#1ba1e2;strokeColor=#006EAF;container=0;fontColor=#ffffff;" parent="1" vertex="1">
          <mxGeometry x="165" y="160" width="10" height="10" as="geometry" />
        </mxCell>
        <mxCell id="ScXmN28w3UK9h5KrgkOw-227" value="" style="rounded=1;whiteSpace=wrap;html=1;fillColor=#1ba1e2;strokeColor=#006EAF;container=0;fontColor=#ffffff;" parent="1" vertex="1">
          <mxGeometry x="165" y="150" width="10" height="10" as="geometry" />
        </mxCell>
        <mxCell id="ScXmN28w3UK9h5KrgkOw-228" value="" style="rounded=1;whiteSpace=wrap;html=1;fillColor=#1ba1e2;strokeColor=#006EAF;container=0;fontColor=#ffffff;" parent="1" vertex="1">
          <mxGeometry x="165" y="140" width="10" height="10" as="geometry" />
        </mxCell>
        <mxCell id="ScXmN28w3UK9h5KrgkOw-229" value="" style="rounded=1;whiteSpace=wrap;html=1;fillColor=#1ba1e2;strokeColor=#006EAF;container=0;fontColor=#ffffff;" parent="1" vertex="1">
          <mxGeometry x="165" y="130" width="10" height="10" as="geometry" />
        </mxCell>
        <mxCell id="ScXmN28w3UK9h5KrgkOw-230" value="" style="rounded=1;whiteSpace=wrap;html=1;fillColor=#1ba1e2;strokeColor=#006EAF;container=0;fontColor=#ffffff;" parent="1" vertex="1">
          <mxGeometry x="165" y="120" width="10" height="10" as="geometry" />
        </mxCell>
        <mxCell id="ScXmN28w3UK9h5KrgkOw-231" value="" style="rounded=1;whiteSpace=wrap;html=1;fillColor=#d80073;strokeColor=#A50040;container=0;fontColor=#ffffff;" parent="1" vertex="1">
          <mxGeometry x="165" y="200" width="10" height="10" as="geometry" />
        </mxCell>
        <mxCell id="ScXmN28w3UK9h5KrgkOw-232" value="" style="rounded=1;whiteSpace=wrap;html=1;fillColor=#d80073;strokeColor=#A50040;container=0;fontColor=#ffffff;" parent="1" vertex="1">
          <mxGeometry x="165" y="210" width="10" height="10" as="geometry" />
        </mxCell>
        <mxCell id="ScXmN28w3UK9h5KrgkOw-233" value="" style="rounded=1;whiteSpace=wrap;html=1;fillColor=#1ba1e2;strokeColor=#006EAF;container=0;fontColor=#ffffff;" parent="1" vertex="1">
          <mxGeometry x="165" y="190" width="10" height="10" as="geometry" />
        </mxCell>
        <mxCell id="ScXmN28w3UK9h5KrgkOw-234" value="" style="rounded=1;whiteSpace=wrap;html=1;fillColor=#1ba1e2;strokeColor=#006EAF;container=0;fontColor=#ffffff;" parent="1" vertex="1">
          <mxGeometry x="165" y="180" width="10" height="10" as="geometry" />
        </mxCell>
        <mxCell id="ScXmN28w3UK9h5KrgkOw-235" value="" style="rounded=1;whiteSpace=wrap;html=1;fillColor=#1ba1e2;strokeColor=#006EAF;container=0;fontColor=#ffffff;" parent="1" vertex="1">
          <mxGeometry x="165" y="170" width="10" height="10" as="geometry" />
        </mxCell>
        <mxCell id="ScXmN28w3UK9h5KrgkOw-237" value="" style="rounded=1;whiteSpace=wrap;html=1;fillColor=#1ba1e2;strokeColor=#006EAF;container=0;fontColor=#ffffff;" parent="1" vertex="1">
          <mxGeometry x="165" y="110" width="10" height="10" as="geometry" />
        </mxCell>
        <mxCell id="ScXmN28w3UK9h5KrgkOw-238" value="$$\mathbf{z}_{tk}$$" style="text;html=1;align=center;verticalAlign=middle;whiteSpace=wrap;rounded=0;" parent="1" vertex="1">
          <mxGeometry x="130" y="200" width="35" height="20" as="geometry" />
        </mxCell>
        <mxCell id="ScXmN28w3UK9h5KrgkOw-239" value="$$\mathbf{h}^{1:M}_t$$" style="text;html=1;align=center;verticalAlign=middle;whiteSpace=wrap;rounded=0;" parent="1" vertex="1">
          <mxGeometry x="120" y="120" width="40" height="20" as="geometry" />
        </mxCell>
        <mxCell id="ScXmN28w3UK9h5KrgkOw-241" value="$$\dots$$" style="text;html=1;align=center;verticalAlign=middle;whiteSpace=wrap;rounded=0;" parent="1" vertex="1">
          <mxGeometry x="240" y="139" width="20" height="20" as="geometry" />
        </mxCell>
        <mxCell id="ScXmN28w3UK9h5KrgkOw-242" value="$$\dots$$" style="text;html=1;align=center;verticalAlign=middle;whiteSpace=wrap;rounded=0;" parent="1" vertex="1">
          <mxGeometry x="475" y="149" width="20" height="20" as="geometry" />
        </mxCell>
        <mxCell id="ScXmN28w3UK9h5KrgkOw-249" value="" style="rounded=1;whiteSpace=wrap;html=1;fillColor=#60a917;strokeColor=#2D7600;container=0;fontColor=#ffffff;" parent="1" vertex="1">
          <mxGeometry x="420" y="159" width="10" height="10" as="geometry" />
        </mxCell>
        <mxCell id="ScXmN28w3UK9h5KrgkOw-250" value="" style="rounded=1;whiteSpace=wrap;html=1;fillColor=#60a917;strokeColor=#2D7600;container=0;fontColor=#ffffff;" parent="1" vertex="1">
          <mxGeometry x="420" y="149" width="10" height="10" as="geometry" />
        </mxCell>
        <mxCell id="ScXmN28w3UK9h5KrgkOw-251" value="" style="rounded=1;whiteSpace=wrap;html=1;fillColor=#60a917;strokeColor=#2D7600;container=0;fontColor=#ffffff;" parent="1" vertex="1">
          <mxGeometry x="420" y="139" width="10" height="10" as="geometry" />
        </mxCell>
        <mxCell id="ScXmN28w3UK9h5KrgkOw-252" value="" style="rounded=1;whiteSpace=wrap;html=1;fillColor=#60a917;strokeColor=#2D7600;container=0;fontColor=#ffffff;" parent="1" vertex="1">
          <mxGeometry x="420" y="129" width="10" height="10" as="geometry" />
        </mxCell>
        <mxCell id="ScXmN28w3UK9h5KrgkOw-253" value="" style="rounded=1;whiteSpace=wrap;html=1;fillColor=#60a917;strokeColor=#2D7600;container=0;fontColor=#ffffff;" parent="1" vertex="1">
          <mxGeometry x="420" y="119" width="10" height="10" as="geometry" />
        </mxCell>
        <mxCell id="ScXmN28w3UK9h5KrgkOw-254" value="" style="rounded=1;whiteSpace=wrap;html=1;fillColor=#D11200;strokeColor=#B20000;container=0;fontColor=#ffffff;" parent="1" vertex="1">
          <mxGeometry x="420" y="199" width="10" height="10" as="geometry" />
        </mxCell>
        <mxCell id="ScXmN28w3UK9h5KrgkOw-255" value="" style="rounded=1;whiteSpace=wrap;html=1;fillColor=#D11200;strokeColor=#B20000;container=0;fontColor=#ffffff;" parent="1" vertex="1">
          <mxGeometry x="420" y="209" width="10" height="10" as="geometry" />
        </mxCell>
        <mxCell id="ScXmN28w3UK9h5KrgkOw-256" value="" style="rounded=1;whiteSpace=wrap;html=1;fillColor=#0000FF;strokeColor=#0000CC;container=0;fontColor=#ffffff;" parent="1" vertex="1">
          <mxGeometry x="420" y="189" width="10" height="10" as="geometry" />
        </mxCell>
        <mxCell id="ScXmN28w3UK9h5KrgkOw-257" value="" style="rounded=1;whiteSpace=wrap;html=1;fillColor=#0000FF;strokeColor=#0000CC;container=0;fontColor=#ffffff;" parent="1" vertex="1">
          <mxGeometry x="420" y="179" width="10" height="10" as="geometry" />
        </mxCell>
        <mxCell id="ScXmN28w3UK9h5KrgkOw-258" value="" style="rounded=1;whiteSpace=wrap;html=1;fillColor=#0000FF;strokeColor=#0000CC;container=0;fontColor=#ffffff;" parent="1" vertex="1">
          <mxGeometry x="420" y="169" width="10" height="10" as="geometry" />
        </mxCell>
        <mxCell id="ScXmN28w3UK9h5KrgkOw-259" value="" style="rounded=1;whiteSpace=wrap;html=1;fillColor=#fa6800;strokeColor=#C73500;container=0;fontColor=#000000;" parent="1" vertex="1">
          <mxGeometry x="420" y="99" width="10" height="10" as="geometry" />
        </mxCell>
        <mxCell id="ScXmN28w3UK9h5KrgkOw-260" value="" style="rounded=1;whiteSpace=wrap;html=1;fillColor=#fa6800;strokeColor=#C73500;container=0;fontColor=#000000;" parent="1" vertex="1">
          <mxGeometry x="420" y="109" width="10" height="10" as="geometry" />
        </mxCell>
        <mxCell id="ScXmN28w3UK9h5KrgkOw-261" value="" style="rounded=1;whiteSpace=wrap;html=1;fillColor=#60a917;strokeColor=#2D7600;container=0;fontColor=#ffffff;" parent="1" vertex="1">
          <mxGeometry x="440" y="159" width="10" height="10" as="geometry" />
        </mxCell>
        <mxCell id="ScXmN28w3UK9h5KrgkOw-262" value="" style="rounded=1;whiteSpace=wrap;html=1;fillColor=#60a917;strokeColor=#2D7600;container=0;fontColor=#ffffff;" parent="1" vertex="1">
          <mxGeometry x="440" y="149" width="10" height="10" as="geometry" />
        </mxCell>
        <mxCell id="ScXmN28w3UK9h5KrgkOw-263" value="" style="rounded=1;whiteSpace=wrap;html=1;fillColor=#60a917;strokeColor=#2D7600;container=0;fontColor=#ffffff;" parent="1" vertex="1">
          <mxGeometry x="440" y="139" width="10" height="10" as="geometry" />
        </mxCell>
        <mxCell id="ScXmN28w3UK9h5KrgkOw-264" value="" style="rounded=1;whiteSpace=wrap;html=1;fillColor=#60a917;strokeColor=#2D7600;container=0;fontColor=#ffffff;" parent="1" vertex="1">
          <mxGeometry x="440" y="129" width="10" height="10" as="geometry" />
        </mxCell>
        <mxCell id="ScXmN28w3UK9h5KrgkOw-265" value="" style="rounded=1;whiteSpace=wrap;html=1;fillColor=#60a917;strokeColor=#2D7600;container=0;fontColor=#ffffff;" parent="1" vertex="1">
          <mxGeometry x="440" y="119" width="10" height="10" as="geometry" />
        </mxCell>
        <mxCell id="ScXmN28w3UK9h5KrgkOw-266" value="" style="rounded=1;whiteSpace=wrap;html=1;fillColor=#D11200;strokeColor=#B20000;container=0;fontColor=#ffffff;" parent="1" vertex="1">
          <mxGeometry x="440" y="199" width="10" height="10" as="geometry" />
        </mxCell>
        <mxCell id="ScXmN28w3UK9h5KrgkOw-267" value="" style="rounded=1;whiteSpace=wrap;html=1;fillColor=#D11200;strokeColor=#B20000;container=0;fontColor=#ffffff;" parent="1" vertex="1">
          <mxGeometry x="440" y="209" width="10" height="10" as="geometry" />
        </mxCell>
        <mxCell id="ScXmN28w3UK9h5KrgkOw-268" value="" style="rounded=1;whiteSpace=wrap;html=1;fillColor=#0000FF;strokeColor=#0000CC;container=0;fontColor=#ffffff;" parent="1" vertex="1">
          <mxGeometry x="440" y="189" width="10" height="10" as="geometry" />
        </mxCell>
        <mxCell id="ScXmN28w3UK9h5KrgkOw-269" value="" style="rounded=1;whiteSpace=wrap;html=1;fillColor=#0000FF;strokeColor=#0000CC;container=0;fontColor=#ffffff;" parent="1" vertex="1">
          <mxGeometry x="440" y="179" width="10" height="10" as="geometry" />
        </mxCell>
        <mxCell id="ScXmN28w3UK9h5KrgkOw-270" value="" style="rounded=1;whiteSpace=wrap;html=1;fillColor=#0000FF;strokeColor=#0000CC;container=0;fontColor=#ffffff;" parent="1" vertex="1">
          <mxGeometry x="440" y="169" width="10" height="10" as="geometry" />
        </mxCell>
        <mxCell id="ScXmN28w3UK9h5KrgkOw-271" value="" style="rounded=1;whiteSpace=wrap;html=1;fillColor=#fa6800;strokeColor=#C73500;container=0;fontColor=#000000;" parent="1" vertex="1">
          <mxGeometry x="440" y="99" width="10" height="10" as="geometry" />
        </mxCell>
        <mxCell id="ScXmN28w3UK9h5KrgkOw-272" value="" style="rounded=1;whiteSpace=wrap;html=1;fillColor=#fa6800;strokeColor=#C73500;container=0;fontColor=#000000;" parent="1" vertex="1">
          <mxGeometry x="440" y="109" width="10" height="10" as="geometry" />
        </mxCell>
        <mxCell id="ScXmN28w3UK9h5KrgkOw-273" value="" style="rounded=1;whiteSpace=wrap;html=1;fillColor=#60a917;strokeColor=#2D7600;container=0;fontColor=#ffffff;" parent="1" vertex="1">
          <mxGeometry x="460" y="159" width="10" height="10" as="geometry" />
        </mxCell>
        <mxCell id="ScXmN28w3UK9h5KrgkOw-274" value="" style="rounded=1;whiteSpace=wrap;html=1;fillColor=#60a917;strokeColor=#2D7600;container=0;fontColor=#ffffff;" parent="1" vertex="1">
          <mxGeometry x="460" y="149" width="10" height="10" as="geometry" />
        </mxCell>
        <mxCell id="ScXmN28w3UK9h5KrgkOw-275" value="" style="rounded=1;whiteSpace=wrap;html=1;fillColor=#60a917;strokeColor=#2D7600;container=0;fontColor=#ffffff;" parent="1" vertex="1">
          <mxGeometry x="460" y="139" width="10" height="10" as="geometry" />
        </mxCell>
        <mxCell id="ScXmN28w3UK9h5KrgkOw-276" value="" style="rounded=1;whiteSpace=wrap;html=1;fillColor=#60a917;strokeColor=#2D7600;container=0;fontColor=#ffffff;" parent="1" vertex="1">
          <mxGeometry x="460" y="129" width="10" height="10" as="geometry" />
        </mxCell>
        <mxCell id="ScXmN28w3UK9h5KrgkOw-277" value="" style="rounded=1;whiteSpace=wrap;html=1;fillColor=#60a917;strokeColor=#2D7600;container=0;fontColor=#ffffff;" parent="1" vertex="1">
          <mxGeometry x="460" y="119" width="10" height="10" as="geometry" />
        </mxCell>
        <mxCell id="ScXmN28w3UK9h5KrgkOw-278" value="" style="rounded=1;whiteSpace=wrap;html=1;fillColor=#D11200;strokeColor=#B20000;container=0;fontColor=#ffffff;" parent="1" vertex="1">
          <mxGeometry x="460" y="199" width="10" height="10" as="geometry" />
        </mxCell>
        <mxCell id="ScXmN28w3UK9h5KrgkOw-279" value="" style="rounded=1;whiteSpace=wrap;html=1;fillColor=#D11200;strokeColor=#B20000;container=0;fontColor=#ffffff;" parent="1" vertex="1">
          <mxGeometry x="460" y="209" width="10" height="10" as="geometry" />
        </mxCell>
        <mxCell id="ScXmN28w3UK9h5KrgkOw-280" value="" style="rounded=1;whiteSpace=wrap;html=1;fillColor=#0000FF;strokeColor=#0000CC;container=0;fontColor=#ffffff;" parent="1" vertex="1">
          <mxGeometry x="460" y="189" width="10" height="10" as="geometry" />
        </mxCell>
        <mxCell id="ScXmN28w3UK9h5KrgkOw-281" value="" style="rounded=1;whiteSpace=wrap;html=1;fillColor=#0000FF;strokeColor=#0000CC;container=0;fontColor=#ffffff;" parent="1" vertex="1">
          <mxGeometry x="460" y="179" width="10" height="10" as="geometry" />
        </mxCell>
        <mxCell id="ScXmN28w3UK9h5KrgkOw-282" value="" style="rounded=1;whiteSpace=wrap;html=1;fillColor=#0000FF;strokeColor=#0000CC;container=0;fontColor=#ffffff;" parent="1" vertex="1">
          <mxGeometry x="460" y="169" width="10" height="10" as="geometry" />
        </mxCell>
        <mxCell id="ScXmN28w3UK9h5KrgkOw-283" value="" style="rounded=1;whiteSpace=wrap;html=1;fillColor=#fa6800;strokeColor=#C73500;container=0;fontColor=#000000;" parent="1" vertex="1">
          <mxGeometry x="460" y="99" width="10" height="10" as="geometry" />
        </mxCell>
        <mxCell id="ScXmN28w3UK9h5KrgkOw-284" value="" style="rounded=1;whiteSpace=wrap;html=1;fillColor=#fa6800;strokeColor=#C73500;container=0;fontColor=#000000;" parent="1" vertex="1">
          <mxGeometry x="460" y="109" width="10" height="10" as="geometry" />
        </mxCell>
        <mxCell id="ScXmN28w3UK9h5KrgkOw-301" value="" style="rounded=1;whiteSpace=wrap;html=1;fillColor=#60a917;strokeColor=#2D7600;container=0;fontColor=#ffffff;" parent="1" vertex="1">
          <mxGeometry x="500" y="159" width="10" height="10" as="geometry" />
        </mxCell>
        <mxCell id="ScXmN28w3UK9h5KrgkOw-302" value="" style="rounded=1;whiteSpace=wrap;html=1;fillColor=#60a917;strokeColor=#2D7600;container=0;fontColor=#ffffff;" parent="1" vertex="1">
          <mxGeometry x="500" y="149" width="10" height="10" as="geometry" />
        </mxCell>
        <mxCell id="ScXmN28w3UK9h5KrgkOw-303" value="" style="rounded=1;whiteSpace=wrap;html=1;fillColor=#60a917;strokeColor=#2D7600;container=0;fontColor=#ffffff;" parent="1" vertex="1">
          <mxGeometry x="500" y="139" width="10" height="10" as="geometry" />
        </mxCell>
        <mxCell id="ScXmN28w3UK9h5KrgkOw-304" value="" style="rounded=1;whiteSpace=wrap;html=1;fillColor=#60a917;strokeColor=#2D7600;container=0;fontColor=#ffffff;" parent="1" vertex="1">
          <mxGeometry x="500" y="129" width="10" height="10" as="geometry" />
        </mxCell>
        <mxCell id="ScXmN28w3UK9h5KrgkOw-305" value="" style="rounded=1;whiteSpace=wrap;html=1;fillColor=#60a917;strokeColor=#2D7600;container=0;fontColor=#ffffff;" parent="1" vertex="1">
          <mxGeometry x="500" y="119" width="10" height="10" as="geometry" />
        </mxCell>
        <mxCell id="ScXmN28w3UK9h5KrgkOw-306" value="" style="rounded=1;whiteSpace=wrap;html=1;fillColor=#D11200;strokeColor=#B20000;container=0;fontColor=#ffffff;" parent="1" vertex="1">
          <mxGeometry x="500" y="199" width="10" height="10" as="geometry" />
        </mxCell>
        <mxCell id="ScXmN28w3UK9h5KrgkOw-307" value="" style="rounded=1;whiteSpace=wrap;html=1;fillColor=#D11200;strokeColor=#B20000;container=0;fontColor=#ffffff;" parent="1" vertex="1">
          <mxGeometry x="500" y="209" width="10" height="10" as="geometry" />
        </mxCell>
        <mxCell id="ScXmN28w3UK9h5KrgkOw-308" value="" style="rounded=1;whiteSpace=wrap;html=1;fillColor=#0000FF;strokeColor=#0000CC;container=0;fontColor=#ffffff;" parent="1" vertex="1">
          <mxGeometry x="500" y="189" width="10" height="10" as="geometry" />
        </mxCell>
        <mxCell id="ScXmN28w3UK9h5KrgkOw-309" value="" style="rounded=1;whiteSpace=wrap;html=1;fillColor=#0000FF;strokeColor=#0000CC;container=0;fontColor=#ffffff;" parent="1" vertex="1">
          <mxGeometry x="500" y="179" width="10" height="10" as="geometry" />
        </mxCell>
        <mxCell id="ScXmN28w3UK9h5KrgkOw-310" value="" style="rounded=1;whiteSpace=wrap;html=1;fillColor=#0000FF;strokeColor=#0000CC;container=0;fontColor=#ffffff;" parent="1" vertex="1">
          <mxGeometry x="500" y="169" width="10" height="10" as="geometry" />
        </mxCell>
        <mxCell id="ScXmN28w3UK9h5KrgkOw-311" value="" style="rounded=1;whiteSpace=wrap;html=1;fillColor=#fa6800;strokeColor=#C73500;container=0;fontColor=#000000;" parent="1" vertex="1">
          <mxGeometry x="500" y="99" width="10" height="10" as="geometry" />
        </mxCell>
        <mxCell id="ScXmN28w3UK9h5KrgkOw-312" value="" style="rounded=1;whiteSpace=wrap;html=1;fillColor=#fa6800;strokeColor=#C73500;container=0;fontColor=#000000;" parent="1" vertex="1">
          <mxGeometry x="500" y="109" width="10" height="10" as="geometry" />
        </mxCell>
        <mxCell id="ScXmN28w3UK9h5KrgkOw-316" value="" style="rounded=1;whiteSpace=wrap;html=1;fillColor=none;strokeColor=#FF0000;" parent="1" vertex="1">
          <mxGeometry x="625" y="125" width="20" height="60" as="geometry" />
        </mxCell>
        <mxCell id="ScXmN28w3UK9h5KrgkOw-318" value="" style="rounded=1;whiteSpace=wrap;html=1;fillColor=#1ba1e2;strokeColor=#006EAF;container=0;fontColor=#ffffff;" parent="1" vertex="1">
          <mxGeometry x="165" y="100" width="10" height="10" as="geometry" />
        </mxCell>
        <mxCell id="ScXmN28w3UK9h5KrgkOw-319" value="" style="rounded=1;whiteSpace=wrap;html=1;fillColor=#1ba1e2;strokeColor=#006EAF;container=0;fontColor=#ffffff;" parent="1" vertex="1">
          <mxGeometry x="185" y="160" width="10" height="10" as="geometry" />
        </mxCell>
        <mxCell id="ScXmN28w3UK9h5KrgkOw-320" value="" style="rounded=1;whiteSpace=wrap;html=1;fillColor=#1ba1e2;strokeColor=#006EAF;container=0;fontColor=#ffffff;" parent="1" vertex="1">
          <mxGeometry x="185" y="150" width="10" height="10" as="geometry" />
        </mxCell>
        <mxCell id="ScXmN28w3UK9h5KrgkOw-321" value="" style="rounded=1;whiteSpace=wrap;html=1;fillColor=#1ba1e2;strokeColor=#006EAF;container=0;fontColor=#ffffff;" parent="1" vertex="1">
          <mxGeometry x="185" y="140" width="10" height="10" as="geometry" />
        </mxCell>
        <mxCell id="ScXmN28w3UK9h5KrgkOw-322" value="" style="rounded=1;whiteSpace=wrap;html=1;fillColor=#1ba1e2;strokeColor=#006EAF;container=0;fontColor=#ffffff;" parent="1" vertex="1">
          <mxGeometry x="185" y="130" width="10" height="10" as="geometry" />
        </mxCell>
        <mxCell id="ScXmN28w3UK9h5KrgkOw-323" value="" style="rounded=1;whiteSpace=wrap;html=1;fillColor=#1ba1e2;strokeColor=#006EAF;container=0;fontColor=#ffffff;" parent="1" vertex="1">
          <mxGeometry x="185" y="120" width="10" height="10" as="geometry" />
        </mxCell>
        <mxCell id="ScXmN28w3UK9h5KrgkOw-324" value="" style="rounded=1;whiteSpace=wrap;html=1;fillColor=#d80073;strokeColor=#A50040;container=0;fontColor=#ffffff;" parent="1" vertex="1">
          <mxGeometry x="185" y="200" width="10" height="10" as="geometry" />
        </mxCell>
        <mxCell id="ScXmN28w3UK9h5KrgkOw-325" value="" style="rounded=1;whiteSpace=wrap;html=1;fillColor=#d80073;strokeColor=#A50040;container=0;fontColor=#ffffff;" parent="1" vertex="1">
          <mxGeometry x="185" y="210" width="10" height="10" as="geometry" />
        </mxCell>
        <mxCell id="ScXmN28w3UK9h5KrgkOw-326" value="" style="rounded=1;whiteSpace=wrap;html=1;fillColor=#1ba1e2;strokeColor=#006EAF;container=0;fontColor=#ffffff;" parent="1" vertex="1">
          <mxGeometry x="185" y="190" width="10" height="10" as="geometry" />
        </mxCell>
        <mxCell id="ScXmN28w3UK9h5KrgkOw-327" value="" style="rounded=1;whiteSpace=wrap;html=1;fillColor=#1ba1e2;strokeColor=#006EAF;container=0;fontColor=#ffffff;" parent="1" vertex="1">
          <mxGeometry x="185" y="180" width="10" height="10" as="geometry" />
        </mxCell>
        <mxCell id="ScXmN28w3UK9h5KrgkOw-328" value="" style="rounded=1;whiteSpace=wrap;html=1;fillColor=#1ba1e2;strokeColor=#006EAF;container=0;fontColor=#ffffff;" parent="1" vertex="1">
          <mxGeometry x="185" y="170" width="10" height="10" as="geometry" />
        </mxCell>
        <mxCell id="ScXmN28w3UK9h5KrgkOw-329" value="" style="rounded=1;whiteSpace=wrap;html=1;fillColor=#1ba1e2;strokeColor=#006EAF;container=0;fontColor=#ffffff;" parent="1" vertex="1">
          <mxGeometry x="185" y="110" width="10" height="10" as="geometry" />
        </mxCell>
        <mxCell id="ScXmN28w3UK9h5KrgkOw-330" value="" style="rounded=1;whiteSpace=wrap;html=1;fillColor=#1ba1e2;strokeColor=#006EAF;container=0;fontColor=#ffffff;" parent="1" vertex="1">
          <mxGeometry x="185" y="100" width="10" height="10" as="geometry" />
        </mxCell>
        <mxCell id="ScXmN28w3UK9h5KrgkOw-331" value="" style="rounded=1;whiteSpace=wrap;html=1;fillColor=#1ba1e2;strokeColor=#006EAF;container=0;fontColor=#ffffff;" parent="1" vertex="1">
          <mxGeometry x="205" y="160" width="10" height="10" as="geometry" />
        </mxCell>
        <mxCell id="ScXmN28w3UK9h5KrgkOw-332" value="" style="rounded=1;whiteSpace=wrap;html=1;fillColor=#1ba1e2;strokeColor=#006EAF;container=0;fontColor=#ffffff;" parent="1" vertex="1">
          <mxGeometry x="205" y="150" width="10" height="10" as="geometry" />
        </mxCell>
        <mxCell id="ScXmN28w3UK9h5KrgkOw-333" value="" style="rounded=1;whiteSpace=wrap;html=1;fillColor=#1ba1e2;strokeColor=#006EAF;container=0;fontColor=#ffffff;" parent="1" vertex="1">
          <mxGeometry x="205" y="140" width="10" height="10" as="geometry" />
        </mxCell>
        <mxCell id="ScXmN28w3UK9h5KrgkOw-334" value="" style="rounded=1;whiteSpace=wrap;html=1;fillColor=#1ba1e2;strokeColor=#006EAF;container=0;fontColor=#ffffff;" parent="1" vertex="1">
          <mxGeometry x="205" y="130" width="10" height="10" as="geometry" />
        </mxCell>
        <mxCell id="ScXmN28w3UK9h5KrgkOw-335" value="" style="rounded=1;whiteSpace=wrap;html=1;fillColor=#1ba1e2;strokeColor=#006EAF;container=0;fontColor=#ffffff;" parent="1" vertex="1">
          <mxGeometry x="205" y="120" width="10" height="10" as="geometry" />
        </mxCell>
        <mxCell id="ScXmN28w3UK9h5KrgkOw-336" value="" style="rounded=1;whiteSpace=wrap;html=1;fillColor=#d80073;strokeColor=#A50040;container=0;fontColor=#ffffff;" parent="1" vertex="1">
          <mxGeometry x="205" y="200" width="10" height="10" as="geometry" />
        </mxCell>
        <mxCell id="ScXmN28w3UK9h5KrgkOw-337" value="" style="rounded=1;whiteSpace=wrap;html=1;fillColor=#d80073;strokeColor=#A50040;container=0;fontColor=#ffffff;" parent="1" vertex="1">
          <mxGeometry x="205" y="210" width="10" height="10" as="geometry" />
        </mxCell>
        <mxCell id="ScXmN28w3UK9h5KrgkOw-338" value="" style="rounded=1;whiteSpace=wrap;html=1;fillColor=#1ba1e2;strokeColor=#006EAF;container=0;fontColor=#ffffff;" parent="1" vertex="1">
          <mxGeometry x="205" y="190" width="10" height="10" as="geometry" />
        </mxCell>
        <mxCell id="ScXmN28w3UK9h5KrgkOw-339" value="" style="rounded=1;whiteSpace=wrap;html=1;fillColor=#1ba1e2;strokeColor=#006EAF;container=0;fontColor=#ffffff;" parent="1" vertex="1">
          <mxGeometry x="205" y="180" width="10" height="10" as="geometry" />
        </mxCell>
        <mxCell id="ScXmN28w3UK9h5KrgkOw-340" value="" style="rounded=1;whiteSpace=wrap;html=1;fillColor=#1ba1e2;strokeColor=#006EAF;container=0;fontColor=#ffffff;" parent="1" vertex="1">
          <mxGeometry x="205" y="170" width="10" height="10" as="geometry" />
        </mxCell>
        <mxCell id="ScXmN28w3UK9h5KrgkOw-341" value="" style="rounded=1;whiteSpace=wrap;html=1;fillColor=#1ba1e2;strokeColor=#006EAF;container=0;fontColor=#ffffff;" parent="1" vertex="1">
          <mxGeometry x="205" y="110" width="10" height="10" as="geometry" />
        </mxCell>
        <mxCell id="ScXmN28w3UK9h5KrgkOw-342" value="" style="rounded=1;whiteSpace=wrap;html=1;fillColor=#1ba1e2;strokeColor=#006EAF;container=0;fontColor=#ffffff;" parent="1" vertex="1">
          <mxGeometry x="205" y="100" width="10" height="10" as="geometry" />
        </mxCell>
        <mxCell id="ScXmN28w3UK9h5KrgkOw-343" value="" style="rounded=1;whiteSpace=wrap;html=1;fillColor=#1ba1e2;strokeColor=#006EAF;container=0;fontColor=#ffffff;" parent="1" vertex="1">
          <mxGeometry x="225" y="160" width="10" height="10" as="geometry" />
        </mxCell>
        <mxCell id="ScXmN28w3UK9h5KrgkOw-344" value="" style="rounded=1;whiteSpace=wrap;html=1;fillColor=#1ba1e2;strokeColor=#006EAF;container=0;fontColor=#ffffff;" parent="1" vertex="1">
          <mxGeometry x="225" y="150" width="10" height="10" as="geometry" />
        </mxCell>
        <mxCell id="ScXmN28w3UK9h5KrgkOw-345" value="" style="rounded=1;whiteSpace=wrap;html=1;fillColor=#1ba1e2;strokeColor=#006EAF;container=0;fontColor=#ffffff;" parent="1" vertex="1">
          <mxGeometry x="225" y="140" width="10" height="10" as="geometry" />
        </mxCell>
        <mxCell id="ScXmN28w3UK9h5KrgkOw-346" value="" style="rounded=1;whiteSpace=wrap;html=1;fillColor=#1ba1e2;strokeColor=#006EAF;container=0;fontColor=#ffffff;" parent="1" vertex="1">
          <mxGeometry x="225" y="130" width="10" height="10" as="geometry" />
        </mxCell>
        <mxCell id="ScXmN28w3UK9h5KrgkOw-347" value="" style="rounded=1;whiteSpace=wrap;html=1;fillColor=#1ba1e2;strokeColor=#006EAF;container=0;fontColor=#ffffff;" parent="1" vertex="1">
          <mxGeometry x="225" y="120" width="10" height="10" as="geometry" />
        </mxCell>
        <mxCell id="ScXmN28w3UK9h5KrgkOw-348" value="" style="rounded=1;whiteSpace=wrap;html=1;fillColor=#d80073;strokeColor=#A50040;container=0;fontColor=#ffffff;" parent="1" vertex="1">
          <mxGeometry x="225" y="200" width="10" height="10" as="geometry" />
        </mxCell>
        <mxCell id="ScXmN28w3UK9h5KrgkOw-349" value="" style="rounded=1;whiteSpace=wrap;html=1;fillColor=#d80073;strokeColor=#A50040;container=0;fontColor=#ffffff;" parent="1" vertex="1">
          <mxGeometry x="225" y="210" width="10" height="10" as="geometry" />
        </mxCell>
        <mxCell id="ScXmN28w3UK9h5KrgkOw-350" value="" style="rounded=1;whiteSpace=wrap;html=1;fillColor=#1ba1e2;strokeColor=#006EAF;container=0;fontColor=#ffffff;" parent="1" vertex="1">
          <mxGeometry x="225" y="190" width="10" height="10" as="geometry" />
        </mxCell>
        <mxCell id="ScXmN28w3UK9h5KrgkOw-351" value="" style="rounded=1;whiteSpace=wrap;html=1;fillColor=#1ba1e2;strokeColor=#006EAF;container=0;fontColor=#ffffff;" parent="1" vertex="1">
          <mxGeometry x="225" y="180" width="10" height="10" as="geometry" />
        </mxCell>
        <mxCell id="ScXmN28w3UK9h5KrgkOw-352" value="" style="rounded=1;whiteSpace=wrap;html=1;fillColor=#1ba1e2;strokeColor=#006EAF;container=0;fontColor=#ffffff;" parent="1" vertex="1">
          <mxGeometry x="225" y="170" width="10" height="10" as="geometry" />
        </mxCell>
        <mxCell id="ScXmN28w3UK9h5KrgkOw-353" value="" style="rounded=1;whiteSpace=wrap;html=1;fillColor=#1ba1e2;strokeColor=#006EAF;container=0;fontColor=#ffffff;" parent="1" vertex="1">
          <mxGeometry x="225" y="110" width="10" height="10" as="geometry" />
        </mxCell>
        <mxCell id="ScXmN28w3UK9h5KrgkOw-354" value="" style="rounded=1;whiteSpace=wrap;html=1;fillColor=#1ba1e2;strokeColor=#006EAF;container=0;fontColor=#ffffff;" parent="1" vertex="1">
          <mxGeometry x="225" y="100" width="10" height="10" as="geometry" />
        </mxCell>
        <mxCell id="ScXmN28w3UK9h5KrgkOw-367" value="" style="rounded=1;whiteSpace=wrap;html=1;fillColor=#1ba1e2;strokeColor=#006EAF;container=0;fontColor=#ffffff;" parent="1" vertex="1">
          <mxGeometry x="265" y="160" width="10" height="10" as="geometry" />
        </mxCell>
        <mxCell id="ScXmN28w3UK9h5KrgkOw-368" value="" style="rounded=1;whiteSpace=wrap;html=1;fillColor=#1ba1e2;strokeColor=#006EAF;container=0;fontColor=#ffffff;" parent="1" vertex="1">
          <mxGeometry x="265" y="150" width="10" height="10" as="geometry" />
        </mxCell>
        <mxCell id="ScXmN28w3UK9h5KrgkOw-369" value="" style="rounded=1;whiteSpace=wrap;html=1;fillColor=#1ba1e2;strokeColor=#006EAF;container=0;fontColor=#ffffff;" parent="1" vertex="1">
          <mxGeometry x="265" y="140" width="10" height="10" as="geometry" />
        </mxCell>
        <mxCell id="ScXmN28w3UK9h5KrgkOw-370" value="" style="rounded=1;whiteSpace=wrap;html=1;fillColor=#1ba1e2;strokeColor=#006EAF;container=0;fontColor=#ffffff;" parent="1" vertex="1">
          <mxGeometry x="265" y="130" width="10" height="10" as="geometry" />
        </mxCell>
        <mxCell id="ScXmN28w3UK9h5KrgkOw-371" value="" style="rounded=1;whiteSpace=wrap;html=1;fillColor=#1ba1e2;strokeColor=#006EAF;container=0;fontColor=#ffffff;" parent="1" vertex="1">
          <mxGeometry x="265" y="120" width="10" height="10" as="geometry" />
        </mxCell>
        <mxCell id="ScXmN28w3UK9h5KrgkOw-372" value="" style="rounded=1;whiteSpace=wrap;html=1;fillColor=#d80073;strokeColor=#A50040;container=0;fontColor=#ffffff;" parent="1" vertex="1">
          <mxGeometry x="265" y="200" width="10" height="10" as="geometry" />
        </mxCell>
        <mxCell id="ScXmN28w3UK9h5KrgkOw-373" value="" style="rounded=1;whiteSpace=wrap;html=1;fillColor=#d80073;strokeColor=#A50040;container=0;fontColor=#ffffff;" parent="1" vertex="1">
          <mxGeometry x="265" y="210" width="10" height="10" as="geometry" />
        </mxCell>
        <mxCell id="ScXmN28w3UK9h5KrgkOw-374" value="" style="rounded=1;whiteSpace=wrap;html=1;fillColor=#1ba1e2;strokeColor=#006EAF;container=0;fontColor=#ffffff;" parent="1" vertex="1">
          <mxGeometry x="265" y="190" width="10" height="10" as="geometry" />
        </mxCell>
        <mxCell id="ScXmN28w3UK9h5KrgkOw-375" value="" style="rounded=1;whiteSpace=wrap;html=1;fillColor=#1ba1e2;strokeColor=#006EAF;container=0;fontColor=#ffffff;" parent="1" vertex="1">
          <mxGeometry x="265" y="180" width="10" height="10" as="geometry" />
        </mxCell>
        <mxCell id="ScXmN28w3UK9h5KrgkOw-376" value="" style="rounded=1;whiteSpace=wrap;html=1;fillColor=#1ba1e2;strokeColor=#006EAF;container=0;fontColor=#ffffff;" parent="1" vertex="1">
          <mxGeometry x="265" y="170" width="10" height="10" as="geometry" />
        </mxCell>
        <mxCell id="ScXmN28w3UK9h5KrgkOw-377" value="" style="rounded=1;whiteSpace=wrap;html=1;fillColor=#1ba1e2;strokeColor=#006EAF;container=0;fontColor=#ffffff;" parent="1" vertex="1">
          <mxGeometry x="265" y="110" width="10" height="10" as="geometry" />
        </mxCell>
        <mxCell id="ScXmN28w3UK9h5KrgkOw-378" value="" style="rounded=1;whiteSpace=wrap;html=1;fillColor=#1ba1e2;strokeColor=#006EAF;container=0;fontColor=#ffffff;" parent="1" vertex="1">
          <mxGeometry x="265" y="100" width="10" height="10" as="geometry" />
        </mxCell>
        <mxCell id="ScXmN28w3UK9h5KrgkOw-379" value="" style="rounded=1;whiteSpace=wrap;html=1;fillColor=none;strokeColor=#FF0000;" parent="1" vertex="1">
          <mxGeometry x="180" y="75" width="20" height="150" as="geometry" />
        </mxCell>
        <mxCell id="NknOo35smSlC8cDLZzpO-1" value="" style="rounded=1;whiteSpace=wrap;html=1;fillColor=#fa6800;strokeColor=#C73500;container=0;fontColor=#000000;" parent="1" vertex="1">
          <mxGeometry x="500" y="79" width="10" height="10" as="geometry" />
        </mxCell>
        <mxCell id="NknOo35smSlC8cDLZzpO-2" value="" style="rounded=1;whiteSpace=wrap;html=1;fillColor=#fa6800;strokeColor=#C73500;container=0;fontColor=#000000;" parent="1" vertex="1">
          <mxGeometry x="500" y="89" width="10" height="10" as="geometry" />
        </mxCell>
        <mxCell id="NknOo35smSlC8cDLZzpO-6" value="" style="rounded=1;whiteSpace=wrap;html=1;fillColor=#fa6800;strokeColor=#C73500;container=0;fontColor=#000000;" parent="1" vertex="1">
          <mxGeometry x="460" y="79" width="10" height="10" as="geometry" />
        </mxCell>
        <mxCell id="NknOo35smSlC8cDLZzpO-7" value="" style="rounded=1;whiteSpace=wrap;html=1;fillColor=#fa6800;strokeColor=#C73500;container=0;fontColor=#000000;" parent="1" vertex="1">
          <mxGeometry x="460" y="89" width="10" height="10" as="geometry" />
        </mxCell>
        <mxCell id="NknOo35smSlC8cDLZzpO-8" value="" style="rounded=1;whiteSpace=wrap;html=1;fillColor=#fa6800;strokeColor=#C73500;container=0;fontColor=#000000;" parent="1" vertex="1">
          <mxGeometry x="400" y="79" width="10" height="10" as="geometry" />
        </mxCell>
        <mxCell id="NknOo35smSlC8cDLZzpO-9" value="" style="rounded=1;whiteSpace=wrap;html=1;fillColor=#fa6800;strokeColor=#C73500;container=0;fontColor=#000000;" parent="1" vertex="1">
          <mxGeometry x="400" y="89" width="10" height="10" as="geometry" />
        </mxCell>
        <mxCell id="NknOo35smSlC8cDLZzpO-10" value="" style="rounded=1;whiteSpace=wrap;html=1;fillColor=#fa6800;strokeColor=#C73500;container=0;fontColor=#000000;" parent="1" vertex="1">
          <mxGeometry x="440" y="79" width="10" height="10" as="geometry" />
        </mxCell>
        <mxCell id="NknOo35smSlC8cDLZzpO-11" value="" style="rounded=1;whiteSpace=wrap;html=1;fillColor=#fa6800;strokeColor=#C73500;container=0;fontColor=#000000;" parent="1" vertex="1">
          <mxGeometry x="440" y="89" width="10" height="10" as="geometry" />
        </mxCell>
        <mxCell id="NknOo35smSlC8cDLZzpO-12" value="" style="rounded=1;whiteSpace=wrap;html=1;fillColor=#fa6800;strokeColor=#C73500;container=0;fontColor=#000000;" parent="1" vertex="1">
          <mxGeometry x="420" y="79" width="10" height="10" as="geometry" />
        </mxCell>
        <mxCell id="NknOo35smSlC8cDLZzpO-13" value="" style="rounded=1;whiteSpace=wrap;html=1;fillColor=#fa6800;strokeColor=#C73500;container=0;fontColor=#000000;" parent="1" vertex="1">
          <mxGeometry x="420" y="89" width="10" height="10" as="geometry" />
        </mxCell>
        <mxCell id="ScXmN28w3UK9h5KrgkOw-286" value="" style="endArrow=classic;html=1;rounded=0;curved=1;exitX=0.5;exitY=0;exitDx=0;exitDy=0;fillColor=#f8cecc;strokeColor=#000000;startArrow=none;startFill=0;entryX=0.5;entryY=0;entryDx=0;entryDy=0;" parent="1" target="erX-MKikJ5FkKgmY3TXJ-12" edge="1">
          <mxGeometry width="50" height="50" relative="1" as="geometry">
            <mxPoint x="634" y="130" as="sourcePoint" />
            <mxPoint x="654" y="127" as="targetPoint" />
            <Array as="points">
              <mxPoint x="646.5" y="108" />
            </Array>
          </mxGeometry>
        </mxCell>
        <mxCell id="ScXmN28w3UK9h5KrgkOw-287" value="" style="endArrow=classic;html=1;rounded=0;curved=1;entryX=0.5;entryY=0;entryDx=0;entryDy=0;fillColor=#f8cecc;strokeColor=#000000;exitX=0.25;exitY=0;exitDx=0;exitDy=0;startArrow=none;startFill=0;" parent="1" target="Dn76FyQwGqLa-fIUbAuM-11" edge="1">
          <mxGeometry width="50" height="50" relative="1" as="geometry">
            <mxPoint x="634" y="130" as="sourcePoint" />
            <mxPoint x="674" y="135" as="targetPoint" />
            <Array as="points">
              <mxPoint x="641.5" y="108" />
              <mxPoint x="666.5" y="108" />
            </Array>
          </mxGeometry>
        </mxCell>
        <mxCell id="ScXmN28w3UK9h5KrgkOw-315" value="" style="endArrow=classic;html=1;rounded=0;curved=1;exitX=0.5;exitY=0;exitDx=0;exitDy=0;entryX=0.5;entryY=0;entryDx=0;entryDy=0;fillColor=#f8cecc;strokeColor=#000000;startArrow=none;startFill=0;" parent="1" target="Dn76FyQwGqLa-fIUbAuM-5" edge="1">
          <mxGeometry width="50" height="50" relative="1" as="geometry">
            <mxPoint x="634" y="130" as="sourcePoint" />
            <mxPoint x="614" y="135" as="targetPoint" />
            <Array as="points">
              <mxPoint x="624" y="108" />
            </Array>
          </mxGeometry>
        </mxCell>
        <mxCell id="NknOo35smSlC8cDLZzpO-14" value="$$\mathbf{V}$$" style="text;html=1;align=center;verticalAlign=middle;whiteSpace=wrap;rounded=0;" parent="1" vertex="1">
          <mxGeometry x="370" y="75" width="20" height="20" as="geometry" />
        </mxCell>
        <mxCell id="NknOo35smSlC8cDLZzpO-15" value="" style="rounded=1;whiteSpace=wrap;html=1;fillColor=#1ba1e2;strokeColor=#006EAF;container=0;fontColor=#ffffff;" parent="1" vertex="1">
          <mxGeometry x="165" y="90" width="10" height="10" as="geometry" />
        </mxCell>
        <mxCell id="NknOo35smSlC8cDLZzpO-16" value="" style="rounded=1;whiteSpace=wrap;html=1;fillColor=#1ba1e2;strokeColor=#006EAF;container=0;fontColor=#ffffff;" parent="1" vertex="1">
          <mxGeometry x="165" y="80" width="10" height="10" as="geometry" />
        </mxCell>
        <mxCell id="NknOo35smSlC8cDLZzpO-17" value="" style="rounded=1;whiteSpace=wrap;html=1;fillColor=#1ba1e2;strokeColor=#006EAF;container=0;fontColor=#ffffff;" parent="1" vertex="1">
          <mxGeometry x="185" y="90" width="10" height="10" as="geometry" />
        </mxCell>
        <mxCell id="NknOo35smSlC8cDLZzpO-18" value="" style="rounded=1;whiteSpace=wrap;html=1;fillColor=#1ba1e2;strokeColor=#006EAF;container=0;fontColor=#ffffff;" parent="1" vertex="1">
          <mxGeometry x="185" y="80" width="10" height="10" as="geometry" />
        </mxCell>
        <mxCell id="NknOo35smSlC8cDLZzpO-19" value="" style="rounded=1;whiteSpace=wrap;html=1;fillColor=#1ba1e2;strokeColor=#006EAF;container=0;fontColor=#ffffff;" parent="1" vertex="1">
          <mxGeometry x="205" y="90" width="10" height="10" as="geometry" />
        </mxCell>
        <mxCell id="NknOo35smSlC8cDLZzpO-20" value="" style="rounded=1;whiteSpace=wrap;html=1;fillColor=#1ba1e2;strokeColor=#006EAF;container=0;fontColor=#ffffff;" parent="1" vertex="1">
          <mxGeometry x="205" y="80" width="10" height="10" as="geometry" />
        </mxCell>
        <mxCell id="NknOo35smSlC8cDLZzpO-21" value="" style="rounded=1;whiteSpace=wrap;html=1;fillColor=#1ba1e2;strokeColor=#006EAF;container=0;fontColor=#ffffff;" parent="1" vertex="1">
          <mxGeometry x="225" y="90" width="10" height="10" as="geometry" />
        </mxCell>
        <mxCell id="NknOo35smSlC8cDLZzpO-22" value="" style="rounded=1;whiteSpace=wrap;html=1;fillColor=#1ba1e2;strokeColor=#006EAF;container=0;fontColor=#ffffff;" parent="1" vertex="1">
          <mxGeometry x="225" y="80" width="10" height="10" as="geometry" />
        </mxCell>
        <mxCell id="NknOo35smSlC8cDLZzpO-25" value="" style="rounded=1;whiteSpace=wrap;html=1;fillColor=#1ba1e2;strokeColor=#006EAF;container=0;fontColor=#ffffff;" parent="1" vertex="1">
          <mxGeometry x="265" y="90" width="10" height="10" as="geometry" />
        </mxCell>
        <mxCell id="NknOo35smSlC8cDLZzpO-26" value="" style="rounded=1;whiteSpace=wrap;html=1;fillColor=#1ba1e2;strokeColor=#006EAF;container=0;fontColor=#ffffff;" parent="1" vertex="1">
          <mxGeometry x="265" y="80" width="10" height="10" as="geometry" />
        </mxCell>
        <mxCell id="ScXmN28w3UK9h5KrgkOw-381" value="" style="endArrow=classic;html=1;rounded=0;curved=1;exitX=0.517;exitY=-0.077;exitDx=0;exitDy=0;exitPerimeter=0;entryX=0.5;entryY=0;entryDx=0;entryDy=0;fillColor=#f8cecc;strokeColor=#000000;startArrow=none;startFill=0;" parent="1" edge="1">
          <mxGeometry width="50" height="50" relative="1" as="geometry">
            <mxPoint x="186.99999999999983" y="79.22999999999999" as="sourcePoint" />
            <mxPoint x="169" y="80" as="targetPoint" />
            <Array as="points">
              <mxPoint x="179" y="60" />
            </Array>
          </mxGeometry>
        </mxCell>
        <mxCell id="ScXmN28w3UK9h5KrgkOw-382" value="" style="endArrow=classic;html=1;rounded=0;curved=1;exitX=0.517;exitY=-0.077;exitDx=0;exitDy=0;exitPerimeter=0;fillColor=#f8cecc;strokeColor=#000000;startArrow=none;startFill=0;" parent="1" edge="1">
          <mxGeometry width="50" height="50" relative="1" as="geometry">
            <mxPoint x="192.66999999999985" y="79.99999999999999" as="sourcePoint" />
            <mxPoint x="210" y="79.77" as="targetPoint" />
            <Array as="points">
              <mxPoint x="202.5" y="60.769999999999996" />
            </Array>
          </mxGeometry>
        </mxCell>
        <mxCell id="ScXmN28w3UK9h5KrgkOw-383" value="" style="endArrow=classic;html=1;rounded=0;curved=1;entryX=0.5;entryY=0;entryDx=0;entryDy=0;fillColor=#f8cecc;strokeColor=#000000;exitX=0.25;exitY=0;exitDx=0;exitDy=0;startArrow=none;startFill=0;" parent="1" edge="1">
          <mxGeometry width="50" height="50" relative="1" as="geometry">
            <mxPoint x="190" y="80" as="sourcePoint" />
            <mxPoint x="230" y="80" as="targetPoint" />
            <Array as="points">
              <mxPoint x="197.5" y="60" />
              <mxPoint x="222.5" y="60" />
            </Array>
          </mxGeometry>
        </mxCell>
        <mxCell id="ScXmN28w3UK9h5KrgkOw-385" value="" style="endArrow=classic;html=1;rounded=0;curved=1;entryX=0.5;entryY=0;entryDx=0;entryDy=0;fillColor=#f8cecc;strokeColor=#000000;startArrow=none;startFill=0;" parent="1" edge="1">
          <mxGeometry width="50" height="50" relative="1" as="geometry">
            <mxPoint x="188" y="80" as="sourcePoint" />
            <mxPoint x="270" y="80" as="targetPoint" />
            <Array as="points">
              <mxPoint x="190" y="40" />
              <mxPoint x="240" y="50" />
            </Array>
          </mxGeometry>
        </mxCell>
        <mxCell id="erX-MKikJ5FkKgmY3TXJ-2" value="$$+$$" style="text;html=1;align=center;verticalAlign=middle;whiteSpace=wrap;rounded=0;" parent="1" vertex="1">
          <mxGeometry x="370" y="89" width="20" height="20" as="geometry" />
        </mxCell>
        <mxCell id="erX-MKikJ5FkKgmY3TXJ-4" value="" style="rounded=1;whiteSpace=wrap;html=1;fillColor=#dae8fc;strokeColor=#6c8ebf;container=0;" parent="1" vertex="1">
          <mxGeometry x="630" y="130" width="10" height="10" as="geometry" />
        </mxCell>
        <mxCell id="erX-MKikJ5FkKgmY3TXJ-5" value="" style="rounded=1;whiteSpace=wrap;html=1;fillColor=#dae8fc;strokeColor=#6c8ebf;container=0;" parent="1" vertex="1">
          <mxGeometry x="630" y="140" width="10" height="10" as="geometry" />
        </mxCell>
        <mxCell id="erX-MKikJ5FkKgmY3TXJ-6" value="" style="rounded=1;whiteSpace=wrap;html=1;fillColor=#dae8fc;strokeColor=#6c8ebf;container=0;" parent="1" vertex="1">
          <mxGeometry x="630" y="150" width="10" height="10" as="geometry" />
        </mxCell>
        <mxCell id="erX-MKikJ5FkKgmY3TXJ-7" value="" style="rounded=1;whiteSpace=wrap;html=1;fillColor=#dae8fc;strokeColor=#6c8ebf;container=0;" parent="1" vertex="1">
          <mxGeometry x="630" y="160" width="10" height="10" as="geometry" />
        </mxCell>
        <mxCell id="erX-MKikJ5FkKgmY3TXJ-8" value="" style="rounded=1;whiteSpace=wrap;html=1;fillColor=#dae8fc;strokeColor=#6c8ebf;container=0;" parent="1" vertex="1">
          <mxGeometry x="630" y="170" width="10" height="10" as="geometry" />
        </mxCell>
        <mxCell id="erX-MKikJ5FkKgmY3TXJ-10" value="$$\textbf{Linear}_\theta$$" style="rounded=1;whiteSpace=wrap;html=1;fillColor=#d5e8d4;strokeColor=#82b366;fontFamily=Segoe UI;fontSize=12;" parent="1" vertex="1">
          <mxGeometry x="531.18" y="80" width="58.82" height="140" as="geometry" />
        </mxCell>
        <mxCell id="erX-MKikJ5FkKgmY3TXJ-11" value="" style="labelPosition=right;align=left;strokeWidth=1;shape=mxgraph.mockup.markup.curlyBrace;html=1;shadow=0;dashed=0;strokeColor=#999999;direction=north;rotation=-180;" parent="1" vertex="1">
          <mxGeometry x="513" y="80" width="14.95" height="140" as="geometry" />
        </mxCell>
        <mxCell id="erX-MKikJ5FkKgmY3TXJ-12" value="" style="rounded=1;whiteSpace=wrap;html=1;fillColor=#dae8fc;strokeColor=#6c8ebf;container=0;" parent="1" vertex="1">
          <mxGeometry x="650" y="130" width="10" height="10" as="geometry" />
        </mxCell>
        <mxCell id="erX-MKikJ5FkKgmY3TXJ-13" value="" style="rounded=1;whiteSpace=wrap;html=1;fillColor=#dae8fc;strokeColor=#6c8ebf;container=0;" parent="1" vertex="1">
          <mxGeometry x="650" y="140" width="10" height="10" as="geometry" />
        </mxCell>
        <mxCell id="erX-MKikJ5FkKgmY3TXJ-14" value="" style="rounded=1;whiteSpace=wrap;html=1;fillColor=#dae8fc;strokeColor=#6c8ebf;container=0;" parent="1" vertex="1">
          <mxGeometry x="650" y="150" width="10" height="10" as="geometry" />
        </mxCell>
        <mxCell id="erX-MKikJ5FkKgmY3TXJ-15" value="" style="rounded=1;whiteSpace=wrap;html=1;fillColor=#dae8fc;strokeColor=#6c8ebf;container=0;" parent="1" vertex="1">
          <mxGeometry x="650" y="160" width="10" height="10" as="geometry" />
        </mxCell>
        <mxCell id="erX-MKikJ5FkKgmY3TXJ-16" value="" style="rounded=1;whiteSpace=wrap;html=1;fillColor=#dae8fc;strokeColor=#6c8ebf;container=0;" parent="1" vertex="1">
          <mxGeometry x="650" y="170" width="10" height="10" as="geometry" />
        </mxCell>
        <mxCell id="erX-MKikJ5FkKgmY3TXJ-17" value="" style="rounded=1;whiteSpace=wrap;html=1;fillColor=#dae8fc;strokeColor=#6c8ebf;container=0;" parent="1" vertex="1">
          <mxGeometry x="710" y="130" width="10" height="10" as="geometry" />
        </mxCell>
        <mxCell id="erX-MKikJ5FkKgmY3TXJ-18" value="" style="rounded=1;whiteSpace=wrap;html=1;fillColor=#dae8fc;strokeColor=#6c8ebf;container=0;" parent="1" vertex="1">
          <mxGeometry x="710" y="140" width="10" height="10" as="geometry" />
        </mxCell>
        <mxCell id="erX-MKikJ5FkKgmY3TXJ-19" value="" style="rounded=1;whiteSpace=wrap;html=1;fillColor=#dae8fc;strokeColor=#6c8ebf;container=0;" parent="1" vertex="1">
          <mxGeometry x="710" y="150" width="10" height="10" as="geometry" />
        </mxCell>
        <mxCell id="erX-MKikJ5FkKgmY3TXJ-20" value="" style="rounded=1;whiteSpace=wrap;html=1;fillColor=#dae8fc;strokeColor=#6c8ebf;container=0;" parent="1" vertex="1">
          <mxGeometry x="710" y="160" width="10" height="10" as="geometry" />
        </mxCell>
        <mxCell id="erX-MKikJ5FkKgmY3TXJ-21" value="" style="rounded=1;whiteSpace=wrap;html=1;fillColor=#dae8fc;strokeColor=#6c8ebf;container=0;" parent="1" vertex="1">
          <mxGeometry x="710" y="170" width="10" height="10" as="geometry" />
        </mxCell>
        <mxCell id="erX-MKikJ5FkKgmY3TXJ-22" value="$$\mathbf{m}^1_t$$" style="text;html=1;align=center;verticalAlign=middle;whiteSpace=wrap;rounded=0;fontSize=12;" parent="1" vertex="1">
          <mxGeometry x="600" y="180" width="30" height="30" as="geometry" />
        </mxCell>
        <mxCell id="erX-MKikJ5FkKgmY3TXJ-23" value="$$\dots$$" style="text;html=1;align=center;verticalAlign=middle;whiteSpace=wrap;rounded=0;" parent="1" vertex="1">
          <mxGeometry x="680" y="135" width="30" height="30" as="geometry" />
        </mxCell>
        <mxCell id="erX-MKikJ5FkKgmY3TXJ-24" value="$$\mathbf{m}^2_t$$" style="text;html=1;align=center;verticalAlign=middle;whiteSpace=wrap;rounded=0;fontSize=12;" parent="1" vertex="1">
          <mxGeometry x="622" y="180" width="30" height="30" as="geometry" />
        </mxCell>
        <mxCell id="erX-MKikJ5FkKgmY3TXJ-25" value="$$\mathbf{m}^M_t$$" style="text;html=1;align=center;verticalAlign=middle;whiteSpace=wrap;rounded=0;fontSize=12;" parent="1" vertex="1">
          <mxGeometry x="700" y="180" width="30" height="30" as="geometry" />
        </mxCell>
        <mxCell id="Dn76FyQwGqLa-fIUbAuM-5" value="" style="rounded=1;whiteSpace=wrap;html=1;fillColor=#dae8fc;strokeColor=#6c8ebf;container=0;" parent="1" vertex="1">
          <mxGeometry x="610" y="130" width="10" height="10" as="geometry" />
        </mxCell>
        <mxCell id="Dn76FyQwGqLa-fIUbAuM-6" value="" style="rounded=1;whiteSpace=wrap;html=1;fillColor=#dae8fc;strokeColor=#6c8ebf;container=0;" parent="1" vertex="1">
          <mxGeometry x="610" y="140" width="10" height="10" as="geometry" />
        </mxCell>
        <mxCell id="Dn76FyQwGqLa-fIUbAuM-7" value="" style="rounded=1;whiteSpace=wrap;html=1;fillColor=#dae8fc;strokeColor=#6c8ebf;container=0;" parent="1" vertex="1">
          <mxGeometry x="610" y="150" width="10" height="10" as="geometry" />
        </mxCell>
        <mxCell id="Dn76FyQwGqLa-fIUbAuM-8" value="" style="rounded=1;whiteSpace=wrap;html=1;fillColor=#dae8fc;strokeColor=#6c8ebf;container=0;" parent="1" vertex="1">
          <mxGeometry x="610" y="160" width="10" height="10" as="geometry" />
        </mxCell>
        <mxCell id="Dn76FyQwGqLa-fIUbAuM-9" value="" style="rounded=1;whiteSpace=wrap;html=1;fillColor=#dae8fc;strokeColor=#6c8ebf;container=0;" parent="1" vertex="1">
          <mxGeometry x="610" y="170" width="10" height="10" as="geometry" />
        </mxCell>
        <mxCell id="Dn76FyQwGqLa-fIUbAuM-11" value="" style="rounded=1;whiteSpace=wrap;html=1;fillColor=#dae8fc;strokeColor=#6c8ebf;container=0;" parent="1" vertex="1">
          <mxGeometry x="670" y="130" width="10" height="10" as="geometry" />
        </mxCell>
        <mxCell id="Dn76FyQwGqLa-fIUbAuM-12" value="" style="rounded=1;whiteSpace=wrap;html=1;fillColor=#dae8fc;strokeColor=#6c8ebf;container=0;" parent="1" vertex="1">
          <mxGeometry x="670" y="140" width="10" height="10" as="geometry" />
        </mxCell>
        <mxCell id="Dn76FyQwGqLa-fIUbAuM-13" value="" style="rounded=1;whiteSpace=wrap;html=1;fillColor=#dae8fc;strokeColor=#6c8ebf;container=0;" parent="1" vertex="1">
          <mxGeometry x="670" y="150" width="10" height="10" as="geometry" />
        </mxCell>
        <mxCell id="Dn76FyQwGqLa-fIUbAuM-14" value="" style="rounded=1;whiteSpace=wrap;html=1;fillColor=#dae8fc;strokeColor=#6c8ebf;container=0;" parent="1" vertex="1">
          <mxGeometry x="670" y="160" width="10" height="10" as="geometry" />
        </mxCell>
        <mxCell id="Dn76FyQwGqLa-fIUbAuM-15" value="" style="rounded=1;whiteSpace=wrap;html=1;fillColor=#dae8fc;strokeColor=#6c8ebf;container=0;" parent="1" vertex="1">
          <mxGeometry x="670" y="170" width="10" height="10" as="geometry" />
        </mxCell>
        <mxCell id="Dn76FyQwGqLa-fIUbAuM-20" value="" style="labelPosition=right;align=left;strokeWidth=1;shape=mxgraph.mockup.markup.curlyBrace;html=1;shadow=0;dashed=0;strokeColor=#999999;direction=north;rotation=-180;" parent="1" vertex="1">
          <mxGeometry x="590" y="80" width="14.95" height="140" as="geometry" />
        </mxCell>
        <mxCell id="Dn76FyQwGqLa-fIUbAuM-22" value="Văn bản" style="text;html=1;align=center;verticalAlign=middle;whiteSpace=wrap;rounded=0;fontFamily=Segoe UI;" parent="1" vertex="1">
          <mxGeometry x="300" y="75" width="60" height="20" as="geometry" />
        </mxCell>
        <mxCell id="Dn76FyQwGqLa-fIUbAuM-23" value="Giọng nói" style="text;html=1;align=center;verticalAlign=middle;whiteSpace=wrap;rounded=0;fontFamily=Segoe UI;" parent="1" vertex="1">
          <mxGeometry x="300" y="104" width="60" height="20" as="geometry" />
        </mxCell>
        <mxCell id="Dn76FyQwGqLa-fIUbAuM-24" value="Cử chỉ" style="text;html=1;align=center;verticalAlign=middle;whiteSpace=wrap;rounded=0;fontFamily=Segoe UI;" parent="1" vertex="1">
          <mxGeometry x="300" y="120" width="60" height="50" as="geometry" />
        </mxCell>
        <mxCell id="Dn76FyQwGqLa-fIUbAuM-25" value="Token" style="text;html=1;align=center;verticalAlign=middle;whiteSpace=wrap;rounded=0;fontFamily=Segoe UI;" parent="1" vertex="1">
          <mxGeometry x="300" y="169" width="60" height="51" as="geometry" />
        </mxCell>
        <mxCell id="xL9UaANA7qBpwvUoug-A-3" value="" style="rounded=0;whiteSpace=wrap;html=1;fillColor=#008a00;strokeColor=#CCCCCC;fontColor=#ffffff;" parent="1" vertex="1">
          <mxGeometry x="140" y="240" width="20" height="20" as="geometry" />
        </mxCell>
        <mxCell id="xL9UaANA7qBpwvUoug-A-4" value="" style="rounded=0;whiteSpace=wrap;html=1;fillColor=#60a917;strokeColor=#CCCCCC;fontColor=#ffffff;" parent="1" vertex="1">
          <mxGeometry x="160" y="240" width="20" height="20" as="geometry" />
        </mxCell>
        <mxCell id="xL9UaANA7qBpwvUoug-A-5" value="" style="rounded=0;whiteSpace=wrap;html=1;fillColor=#60a917;strokeColor=#CCCCCC;fontColor=#ffffff;" parent="1" vertex="1">
          <mxGeometry x="180" y="240" width="20" height="20" as="geometry" />
        </mxCell>
        <mxCell id="xL9UaANA7qBpwvUoug-A-6" value="" style="rounded=0;whiteSpace=wrap;html=1;fillColor=#60a917;strokeColor=#CCCCCC;fontColor=#ffffff;" parent="1" vertex="1">
          <mxGeometry x="200" y="240" width="20" height="20" as="geometry" />
        </mxCell>
        <mxCell id="xL9UaANA7qBpwvUoug-A-7" value="" style="rounded=0;whiteSpace=wrap;html=1;fillColor=#60a917;strokeColor=#CCCCCC;fontColor=#ffffff;" parent="1" vertex="1">
          <mxGeometry x="220" y="240" width="20" height="20" as="geometry" />
        </mxCell>
        <mxCell id="xL9UaANA7qBpwvUoug-A-8" value="" style="rounded=0;whiteSpace=wrap;html=1;fillColor=#60a917;strokeColor=#CCCCCC;fontColor=#ffffff;" parent="1" vertex="1">
          <mxGeometry x="240" y="240" width="20" height="20" as="geometry" />
        </mxCell>
        <mxCell id="xL9UaANA7qBpwvUoug-A-9" value="" style="rounded=0;whiteSpace=wrap;html=1;fillColor=#60a917;strokeColor=#CCCCCC;fontColor=#ffffff;" parent="1" vertex="1">
          <mxGeometry x="260" y="240" width="20" height="20" as="geometry" />
        </mxCell>
        <mxCell id="xL9UaANA7qBpwvUoug-A-10" value="" style="rounded=0;whiteSpace=wrap;html=1;fillColor=#60a917;strokeColor=#CCCCCC;fontColor=#ffffff;" parent="1" vertex="1">
          <mxGeometry x="140" y="260" width="20" height="20" as="geometry" />
        </mxCell>
        <mxCell id="xL9UaANA7qBpwvUoug-A-11" value="" style="rounded=0;whiteSpace=wrap;html=1;fillColor=#008a00;strokeColor=#CCCCCC;fontColor=#ffffff;" parent="1" vertex="1">
          <mxGeometry x="160" y="260" width="20" height="20" as="geometry" />
        </mxCell>
        <mxCell id="xL9UaANA7qBpwvUoug-A-12" value="" style="rounded=0;whiteSpace=wrap;html=1;fillColor=#60a917;strokeColor=#CCCCCC;fontColor=#ffffff;" parent="1" vertex="1">
          <mxGeometry x="180" y="260" width="20" height="20" as="geometry" />
        </mxCell>
        <mxCell id="xL9UaANA7qBpwvUoug-A-13" value="" style="rounded=0;whiteSpace=wrap;html=1;fillColor=#60a917;strokeColor=#CCCCCC;fontColor=#ffffff;" parent="1" vertex="1">
          <mxGeometry x="200" y="260" width="20" height="20" as="geometry" />
        </mxCell>
        <mxCell id="xL9UaANA7qBpwvUoug-A-14" value="" style="rounded=0;whiteSpace=wrap;html=1;fillColor=#60a917;strokeColor=#CCCCCC;fontColor=#ffffff;" parent="1" vertex="1">
          <mxGeometry x="220" y="260" width="20" height="20" as="geometry" />
        </mxCell>
        <mxCell id="xL9UaANA7qBpwvUoug-A-15" value="" style="rounded=0;whiteSpace=wrap;html=1;fillColor=#60a917;strokeColor=#CCCCCC;fontColor=#ffffff;" parent="1" vertex="1">
          <mxGeometry x="240" y="260" width="20" height="20" as="geometry" />
        </mxCell>
        <mxCell id="xL9UaANA7qBpwvUoug-A-16" value="" style="rounded=0;whiteSpace=wrap;html=1;fillColor=#60a917;strokeColor=#CCCCCC;fontColor=#ffffff;" parent="1" vertex="1">
          <mxGeometry x="260" y="260" width="20" height="20" as="geometry" />
        </mxCell>
        <mxCell id="xL9UaANA7qBpwvUoug-A-17" value="" style="rounded=0;whiteSpace=wrap;html=1;fillColor=#60a917;strokeColor=#CCCCCC;fontColor=#ffffff;" parent="1" vertex="1">
          <mxGeometry x="140" y="280" width="20" height="20" as="geometry" />
        </mxCell>
        <mxCell id="xL9UaANA7qBpwvUoug-A-18" value="" style="rounded=0;whiteSpace=wrap;html=1;fillColor=#60a917;strokeColor=#CCCCCC;fontColor=#ffffff;" parent="1" vertex="1">
          <mxGeometry x="160" y="280" width="20" height="20" as="geometry" />
        </mxCell>
        <mxCell id="xL9UaANA7qBpwvUoug-A-19" value="" style="rounded=0;whiteSpace=wrap;html=1;fillColor=#008a00;strokeColor=#CCCCCC;fontColor=#ffffff;" parent="1" vertex="1">
          <mxGeometry x="180" y="280" width="20" height="20" as="geometry" />
        </mxCell>
        <mxCell id="xL9UaANA7qBpwvUoug-A-20" value="" style="rounded=0;whiteSpace=wrap;html=1;fillColor=#60a917;strokeColor=#CCCCCC;fontColor=#ffffff;" parent="1" vertex="1">
          <mxGeometry x="200" y="280" width="20" height="20" as="geometry" />
        </mxCell>
        <mxCell id="xL9UaANA7qBpwvUoug-A-21" value="" style="rounded=0;whiteSpace=wrap;html=1;fillColor=#60a917;strokeColor=#CCCCCC;fontColor=#ffffff;" parent="1" vertex="1">
          <mxGeometry x="220" y="280" width="20" height="20" as="geometry" />
        </mxCell>
        <mxCell id="xL9UaANA7qBpwvUoug-A-22" value="" style="rounded=0;whiteSpace=wrap;html=1;fillColor=#60a917;strokeColor=#CCCCCC;fontColor=#ffffff;" parent="1" vertex="1">
          <mxGeometry x="240" y="280" width="20" height="20" as="geometry" />
        </mxCell>
        <mxCell id="xL9UaANA7qBpwvUoug-A-23" value="" style="rounded=0;whiteSpace=wrap;html=1;fillColor=#60a917;strokeColor=#CCCCCC;fontColor=#ffffff;" parent="1" vertex="1">
          <mxGeometry x="260" y="280" width="20" height="20" as="geometry" />
        </mxCell>
        <mxCell id="xL9UaANA7qBpwvUoug-A-24" value="" style="rounded=0;whiteSpace=wrap;html=1;fillColor=#60a917;strokeColor=#CCCCCC;fontColor=#ffffff;" parent="1" vertex="1">
          <mxGeometry x="140" y="300" width="20" height="20" as="geometry" />
        </mxCell>
        <mxCell id="xL9UaANA7qBpwvUoug-A-25" value="" style="rounded=0;whiteSpace=wrap;html=1;fillColor=#60a917;strokeColor=#CCCCCC;fontColor=#ffffff;" parent="1" vertex="1">
          <mxGeometry x="160" y="300" width="20" height="20" as="geometry" />
        </mxCell>
        <mxCell id="xL9UaANA7qBpwvUoug-A-26" value="" style="rounded=0;whiteSpace=wrap;html=1;fillColor=#60a917;strokeColor=#CCCCCC;fontColor=#ffffff;" parent="1" vertex="1">
          <mxGeometry x="180" y="300" width="20" height="20" as="geometry" />
        </mxCell>
        <mxCell id="xL9UaANA7qBpwvUoug-A-27" value="" style="rounded=0;whiteSpace=wrap;html=1;fillColor=#008a00;strokeColor=#CCCCCC;fontColor=#ffffff;" parent="1" vertex="1">
          <mxGeometry x="200" y="300" width="20" height="20" as="geometry" />
        </mxCell>
        <mxCell id="xL9UaANA7qBpwvUoug-A-28" value="" style="rounded=0;whiteSpace=wrap;html=1;fillColor=#60a917;strokeColor=#CCCCCC;fontColor=#ffffff;" parent="1" vertex="1">
          <mxGeometry x="220" y="300" width="20" height="20" as="geometry" />
        </mxCell>
        <mxCell id="xL9UaANA7qBpwvUoug-A-29" value="" style="rounded=0;whiteSpace=wrap;html=1;fillColor=#60a917;strokeColor=#CCCCCC;fontColor=#ffffff;" parent="1" vertex="1">
          <mxGeometry x="240" y="300" width="20" height="20" as="geometry" />
        </mxCell>
        <mxCell id="xL9UaANA7qBpwvUoug-A-30" value="" style="rounded=0;whiteSpace=wrap;html=1;fillColor=#60a917;strokeColor=#CCCCCC;fontColor=#ffffff;" parent="1" vertex="1">
          <mxGeometry x="260" y="300" width="20" height="20" as="geometry" />
        </mxCell>
        <mxCell id="xL9UaANA7qBpwvUoug-A-31" value="" style="rounded=0;whiteSpace=wrap;html=1;fillColor=#60a917;strokeColor=#CCCCCC;fontColor=#ffffff;" parent="1" vertex="1">
          <mxGeometry x="140" y="320" width="20" height="20" as="geometry" />
        </mxCell>
        <mxCell id="xL9UaANA7qBpwvUoug-A-32" value="" style="rounded=0;whiteSpace=wrap;html=1;fillColor=#60a917;strokeColor=#CCCCCC;fontColor=#ffffff;" parent="1" vertex="1">
          <mxGeometry x="160" y="320" width="20" height="20" as="geometry" />
        </mxCell>
        <mxCell id="xL9UaANA7qBpwvUoug-A-33" value="" style="rounded=0;whiteSpace=wrap;html=1;fillColor=#60a917;strokeColor=#CCCCCC;fontColor=#ffffff;" parent="1" vertex="1">
          <mxGeometry x="180" y="320" width="20" height="20" as="geometry" />
        </mxCell>
        <mxCell id="xL9UaANA7qBpwvUoug-A-34" value="" style="rounded=0;whiteSpace=wrap;html=1;fillColor=#60a917;strokeColor=#CCCCCC;fontColor=#ffffff;" parent="1" vertex="1">
          <mxGeometry x="200" y="320" width="20" height="20" as="geometry" />
        </mxCell>
        <mxCell id="xL9UaANA7qBpwvUoug-A-35" value="" style="rounded=0;whiteSpace=wrap;html=1;fillColor=#008a00;strokeColor=#CCCCCC;fontColor=#ffffff;" parent="1" vertex="1">
          <mxGeometry x="220" y="320" width="20" height="20" as="geometry" />
        </mxCell>
        <mxCell id="xL9UaANA7qBpwvUoug-A-36" value="" style="rounded=0;whiteSpace=wrap;html=1;fillColor=#60a917;strokeColor=#CCCCCC;fontColor=#ffffff;" parent="1" vertex="1">
          <mxGeometry x="240" y="320" width="20" height="20" as="geometry" />
        </mxCell>
        <mxCell id="xL9UaANA7qBpwvUoug-A-37" value="" style="rounded=0;whiteSpace=wrap;html=1;fillColor=#60a917;strokeColor=#CCCCCC;fontColor=#ffffff;" parent="1" vertex="1">
          <mxGeometry x="260" y="320" width="20" height="20" as="geometry" />
        </mxCell>
        <mxCell id="xL9UaANA7qBpwvUoug-A-38" value="" style="rounded=0;whiteSpace=wrap;html=1;fillColor=#60a917;strokeColor=#CCCCCC;fontColor=#ffffff;" parent="1" vertex="1">
          <mxGeometry x="140" y="340" width="20" height="20" as="geometry" />
        </mxCell>
        <mxCell id="xL9UaANA7qBpwvUoug-A-39" value="" style="rounded=0;whiteSpace=wrap;html=1;fillColor=#60a917;strokeColor=#CCCCCC;fontColor=#ffffff;" parent="1" vertex="1">
          <mxGeometry x="160" y="340" width="20" height="20" as="geometry" />
        </mxCell>
        <mxCell id="xL9UaANA7qBpwvUoug-A-40" value="" style="rounded=0;whiteSpace=wrap;html=1;fillColor=#60a917;strokeColor=#CCCCCC;fontColor=#ffffff;" parent="1" vertex="1">
          <mxGeometry x="180" y="340" width="20" height="20" as="geometry" />
        </mxCell>
        <mxCell id="xL9UaANA7qBpwvUoug-A-41" value="" style="rounded=0;whiteSpace=wrap;html=1;fillColor=#60a917;strokeColor=#CCCCCC;fontColor=#ffffff;" parent="1" vertex="1">
          <mxGeometry x="200" y="340" width="20" height="20" as="geometry" />
        </mxCell>
        <mxCell id="xL9UaANA7qBpwvUoug-A-42" value="" style="rounded=0;whiteSpace=wrap;html=1;fillColor=#60a917;strokeColor=#CCCCCC;fontColor=#ffffff;" parent="1" vertex="1">
          <mxGeometry x="220" y="340" width="20" height="20" as="geometry" />
        </mxCell>
        <mxCell id="xL9UaANA7qBpwvUoug-A-43" value="" style="rounded=0;whiteSpace=wrap;html=1;fillColor=#008a00;strokeColor=#CCCCCC;fontColor=#ffffff;" parent="1" vertex="1">
          <mxGeometry x="240" y="340" width="20" height="20" as="geometry" />
        </mxCell>
        <mxCell id="xL9UaANA7qBpwvUoug-A-44" value="" style="rounded=0;whiteSpace=wrap;html=1;fillColor=#60a917;strokeColor=#CCCCCC;fontColor=#ffffff;" parent="1" vertex="1">
          <mxGeometry x="260" y="340" width="20" height="20" as="geometry" />
        </mxCell>
        <mxCell id="xL9UaANA7qBpwvUoug-A-45" value="" style="rounded=0;whiteSpace=wrap;html=1;fillColor=#60a917;strokeColor=#CCCCCC;fontColor=#ffffff;" parent="1" vertex="1">
          <mxGeometry x="140" y="360" width="20" height="20" as="geometry" />
        </mxCell>
        <mxCell id="xL9UaANA7qBpwvUoug-A-46" value="" style="rounded=0;whiteSpace=wrap;html=1;fillColor=#60a917;strokeColor=#CCCCCC;fontColor=#ffffff;" parent="1" vertex="1">
          <mxGeometry x="160" y="360" width="20" height="20" as="geometry" />
        </mxCell>
        <mxCell id="xL9UaANA7qBpwvUoug-A-47" value="" style="rounded=0;whiteSpace=wrap;html=1;fillColor=#60a917;strokeColor=#CCCCCC;fontColor=#ffffff;" parent="1" vertex="1">
          <mxGeometry x="180" y="360" width="20" height="20" as="geometry" />
        </mxCell>
        <mxCell id="xL9UaANA7qBpwvUoug-A-48" value="" style="rounded=0;whiteSpace=wrap;html=1;fillColor=#60a917;strokeColor=#CCCCCC;fontColor=#ffffff;" parent="1" vertex="1">
          <mxGeometry x="200" y="360" width="20" height="20" as="geometry" />
        </mxCell>
        <mxCell id="xL9UaANA7qBpwvUoug-A-49" value="" style="rounded=0;whiteSpace=wrap;html=1;fillColor=#60a917;strokeColor=#CCCCCC;fontColor=#ffffff;" parent="1" vertex="1">
          <mxGeometry x="220" y="360" width="20" height="20" as="geometry" />
        </mxCell>
        <mxCell id="xL9UaANA7qBpwvUoug-A-50" value="" style="rounded=0;whiteSpace=wrap;html=1;fillColor=#60a917;strokeColor=#CCCCCC;fontColor=#ffffff;" parent="1" vertex="1">
          <mxGeometry x="240" y="360" width="20" height="20" as="geometry" />
        </mxCell>
        <mxCell id="xL9UaANA7qBpwvUoug-A-51" value="" style="rounded=0;whiteSpace=wrap;html=1;fillColor=#008a00;strokeColor=#CCCCCC;fontColor=#ffffff;" parent="1" vertex="1">
          <mxGeometry x="260" y="360" width="20" height="20" as="geometry" />
        </mxCell>
        <mxCell id="xL9UaANA7qBpwvUoug-A-52" value="Full Self-Attention" style="text;html=1;align=center;verticalAlign=middle;whiteSpace=wrap;rounded=0;fontFamily=Segoe UI;fontStyle=1" parent="1" vertex="1">
          <mxGeometry x="140" y="380" width="140" height="20" as="geometry" />
        </mxCell>
        <mxCell id="xL9UaANA7qBpwvUoug-A-53" value="" style="rounded=0;whiteSpace=wrap;html=1;strokeColor=#CCCCCC;fillColor=#008a00;fontColor=#ffffff;" parent="1" vertex="1">
          <mxGeometry x="580" y="240" width="20" height="20" as="geometry" />
        </mxCell>
        <mxCell id="xL9UaANA7qBpwvUoug-A-54" value="" style="rounded=0;whiteSpace=wrap;html=1;strokeColor=#CCCCCC;" parent="1" vertex="1">
          <mxGeometry x="600" y="240" width="20" height="20" as="geometry" />
        </mxCell>
        <mxCell id="xL9UaANA7qBpwvUoug-A-55" value="" style="rounded=0;whiteSpace=wrap;html=1;strokeColor=#CCCCCC;" parent="1" vertex="1">
          <mxGeometry x="620" y="240" width="20" height="20" as="geometry" />
        </mxCell>
        <mxCell id="xL9UaANA7qBpwvUoug-A-56" value="" style="rounded=0;whiteSpace=wrap;html=1;strokeColor=#CCCCCC;" parent="1" vertex="1">
          <mxGeometry x="640" y="240" width="20" height="20" as="geometry" />
        </mxCell>
        <mxCell id="xL9UaANA7qBpwvUoug-A-57" value="" style="rounded=0;whiteSpace=wrap;html=1;strokeColor=#CCCCCC;" parent="1" vertex="1">
          <mxGeometry x="660" y="240" width="20" height="20" as="geometry" />
        </mxCell>
        <mxCell id="xL9UaANA7qBpwvUoug-A-58" value="" style="rounded=0;whiteSpace=wrap;html=1;strokeColor=#CCCCCC;" parent="1" vertex="1">
          <mxGeometry x="680" y="240" width="20" height="20" as="geometry" />
        </mxCell>
        <mxCell id="xL9UaANA7qBpwvUoug-A-59" value="" style="rounded=0;whiteSpace=wrap;html=1;strokeColor=#CCCCCC;" parent="1" vertex="1">
          <mxGeometry x="700" y="240" width="20" height="20" as="geometry" />
        </mxCell>
        <mxCell id="xL9UaANA7qBpwvUoug-A-60" value="" style="rounded=0;whiteSpace=wrap;html=1;strokeColor=#CCCCCC;fillColor=#60a917;fontColor=#ffffff;" parent="1" vertex="1">
          <mxGeometry x="580" y="260" width="20" height="20" as="geometry" />
        </mxCell>
        <mxCell id="xL9UaANA7qBpwvUoug-A-61" value="" style="rounded=0;whiteSpace=wrap;html=1;strokeColor=#CCCCCC;fillColor=#008a00;fontColor=#ffffff;" parent="1" vertex="1">
          <mxGeometry x="600" y="260" width="20" height="20" as="geometry" />
        </mxCell>
        <mxCell id="xL9UaANA7qBpwvUoug-A-62" value="" style="rounded=0;whiteSpace=wrap;html=1;strokeColor=#CCCCCC;" parent="1" vertex="1">
          <mxGeometry x="620" y="260" width="20" height="20" as="geometry" />
        </mxCell>
        <mxCell id="xL9UaANA7qBpwvUoug-A-63" value="" style="rounded=0;whiteSpace=wrap;html=1;strokeColor=#CCCCCC;" parent="1" vertex="1">
          <mxGeometry x="640" y="260" width="20" height="20" as="geometry" />
        </mxCell>
        <mxCell id="xL9UaANA7qBpwvUoug-A-64" value="" style="rounded=0;whiteSpace=wrap;html=1;strokeColor=#CCCCCC;" parent="1" vertex="1">
          <mxGeometry x="660" y="260" width="20" height="20" as="geometry" />
        </mxCell>
        <mxCell id="xL9UaANA7qBpwvUoug-A-65" value="" style="rounded=0;whiteSpace=wrap;html=1;strokeColor=#CCCCCC;" parent="1" vertex="1">
          <mxGeometry x="680" y="260" width="20" height="20" as="geometry" />
        </mxCell>
        <mxCell id="xL9UaANA7qBpwvUoug-A-66" value="" style="rounded=0;whiteSpace=wrap;html=1;strokeColor=#CCCCCC;" parent="1" vertex="1">
          <mxGeometry x="700" y="260" width="20" height="20" as="geometry" />
        </mxCell>
        <mxCell id="xL9UaANA7qBpwvUoug-A-67" value="" style="rounded=0;whiteSpace=wrap;html=1;strokeColor=#CCCCCC;fillColor=#60a917;fontColor=#ffffff;" parent="1" vertex="1">
          <mxGeometry x="580" y="280" width="20" height="20" as="geometry" />
        </mxCell>
        <mxCell id="xL9UaANA7qBpwvUoug-A-68" value="" style="rounded=0;whiteSpace=wrap;html=1;strokeColor=#CCCCCC;fillColor=#60a917;fontColor=#ffffff;" parent="1" vertex="1">
          <mxGeometry x="600" y="280" width="20" height="20" as="geometry" />
        </mxCell>
        <mxCell id="xL9UaANA7qBpwvUoug-A-69" value="" style="rounded=0;whiteSpace=wrap;html=1;strokeColor=#CCCCCC;fillColor=#008a00;fontColor=#ffffff;" parent="1" vertex="1">
          <mxGeometry x="620" y="280" width="20" height="20" as="geometry" />
        </mxCell>
        <mxCell id="xL9UaANA7qBpwvUoug-A-70" value="" style="rounded=0;whiteSpace=wrap;html=1;strokeColor=#CCCCCC;" parent="1" vertex="1">
          <mxGeometry x="640" y="280" width="20" height="20" as="geometry" />
        </mxCell>
        <mxCell id="xL9UaANA7qBpwvUoug-A-71" value="" style="rounded=0;whiteSpace=wrap;html=1;strokeColor=#CCCCCC;" parent="1" vertex="1">
          <mxGeometry x="660" y="280" width="20" height="20" as="geometry" />
        </mxCell>
        <mxCell id="xL9UaANA7qBpwvUoug-A-72" value="" style="rounded=0;whiteSpace=wrap;html=1;strokeColor=#CCCCCC;" parent="1" vertex="1">
          <mxGeometry x="680" y="280" width="20" height="20" as="geometry" />
        </mxCell>
        <mxCell id="xL9UaANA7qBpwvUoug-A-73" value="" style="rounded=0;whiteSpace=wrap;html=1;strokeColor=#CCCCCC;" parent="1" vertex="1">
          <mxGeometry x="700" y="280" width="20" height="20" as="geometry" />
        </mxCell>
        <mxCell id="xL9UaANA7qBpwvUoug-A-74" value="" style="rounded=0;whiteSpace=wrap;html=1;strokeColor=#CCCCCC;" parent="1" vertex="1">
          <mxGeometry x="580" y="300" width="20" height="20" as="geometry" />
        </mxCell>
        <mxCell id="xL9UaANA7qBpwvUoug-A-75" value="" style="rounded=0;whiteSpace=wrap;html=1;strokeColor=#CCCCCC;fillColor=#60a917;fontColor=#ffffff;" parent="1" vertex="1">
          <mxGeometry x="600" y="300" width="20" height="20" as="geometry" />
        </mxCell>
        <mxCell id="xL9UaANA7qBpwvUoug-A-76" value="" style="rounded=0;whiteSpace=wrap;html=1;strokeColor=#CCCCCC;fillColor=#60a917;fontColor=#ffffff;" parent="1" vertex="1">
          <mxGeometry x="620" y="300" width="20" height="20" as="geometry" />
        </mxCell>
        <mxCell id="xL9UaANA7qBpwvUoug-A-77" value="" style="rounded=0;whiteSpace=wrap;html=1;strokeColor=#CCCCCC;fillColor=#008a00;fontColor=#ffffff;" parent="1" vertex="1">
          <mxGeometry x="640" y="300" width="20" height="20" as="geometry" />
        </mxCell>
        <mxCell id="xL9UaANA7qBpwvUoug-A-78" value="" style="rounded=0;whiteSpace=wrap;html=1;strokeColor=#CCCCCC;" parent="1" vertex="1">
          <mxGeometry x="660" y="300" width="20" height="20" as="geometry" />
        </mxCell>
        <mxCell id="xL9UaANA7qBpwvUoug-A-79" value="" style="rounded=0;whiteSpace=wrap;html=1;strokeColor=#CCCCCC;" parent="1" vertex="1">
          <mxGeometry x="680" y="300" width="20" height="20" as="geometry" />
        </mxCell>
        <mxCell id="xL9UaANA7qBpwvUoug-A-80" value="" style="rounded=0;whiteSpace=wrap;html=1;strokeColor=#CCCCCC;" parent="1" vertex="1">
          <mxGeometry x="700" y="300" width="20" height="20" as="geometry" />
        </mxCell>
        <mxCell id="xL9UaANA7qBpwvUoug-A-81" value="" style="rounded=0;whiteSpace=wrap;html=1;strokeColor=#CCCCCC;" parent="1" vertex="1">
          <mxGeometry x="580" y="320" width="20" height="20" as="geometry" />
        </mxCell>
        <mxCell id="xL9UaANA7qBpwvUoug-A-82" value="" style="rounded=0;whiteSpace=wrap;html=1;strokeColor=#CCCCCC;" parent="1" vertex="1">
          <mxGeometry x="600" y="320" width="20" height="20" as="geometry" />
        </mxCell>
        <mxCell id="xL9UaANA7qBpwvUoug-A-83" value="" style="rounded=0;whiteSpace=wrap;html=1;strokeColor=#CCCCCC;fillColor=#60a917;fontColor=#ffffff;" parent="1" vertex="1">
          <mxGeometry x="620" y="320" width="20" height="20" as="geometry" />
        </mxCell>
        <mxCell id="xL9UaANA7qBpwvUoug-A-84" value="" style="rounded=0;whiteSpace=wrap;html=1;strokeColor=#CCCCCC;fillColor=#60a917;fontColor=#ffffff;" parent="1" vertex="1">
          <mxGeometry x="640" y="320" width="20" height="20" as="geometry" />
        </mxCell>
        <mxCell id="xL9UaANA7qBpwvUoug-A-85" value="" style="rounded=0;whiteSpace=wrap;html=1;strokeColor=#CCCCCC;fillColor=#008a00;fontColor=#ffffff;" parent="1" vertex="1">
          <mxGeometry x="660" y="320" width="20" height="20" as="geometry" />
        </mxCell>
        <mxCell id="xL9UaANA7qBpwvUoug-A-86" value="" style="rounded=0;whiteSpace=wrap;html=1;strokeColor=#CCCCCC;" parent="1" vertex="1">
          <mxGeometry x="680" y="320" width="20" height="20" as="geometry" />
        </mxCell>
        <mxCell id="xL9UaANA7qBpwvUoug-A-87" value="" style="rounded=0;whiteSpace=wrap;html=1;strokeColor=#CCCCCC;" parent="1" vertex="1">
          <mxGeometry x="700" y="320" width="20" height="20" as="geometry" />
        </mxCell>
        <mxCell id="xL9UaANA7qBpwvUoug-A-88" value="" style="rounded=0;whiteSpace=wrap;html=1;strokeColor=#CCCCCC;" parent="1" vertex="1">
          <mxGeometry x="580" y="340" width="20" height="20" as="geometry" />
        </mxCell>
        <mxCell id="xL9UaANA7qBpwvUoug-A-89" value="" style="rounded=0;whiteSpace=wrap;html=1;strokeColor=#CCCCCC;" parent="1" vertex="1">
          <mxGeometry x="600" y="340" width="20" height="20" as="geometry" />
        </mxCell>
        <mxCell id="xL9UaANA7qBpwvUoug-A-90" value="" style="rounded=0;whiteSpace=wrap;html=1;strokeColor=#CCCCCC;" parent="1" vertex="1">
          <mxGeometry x="620" y="340" width="20" height="20" as="geometry" />
        </mxCell>
        <mxCell id="xL9UaANA7qBpwvUoug-A-91" value="" style="rounded=0;whiteSpace=wrap;html=1;strokeColor=#CCCCCC;fillColor=#60a917;fontColor=#ffffff;" parent="1" vertex="1">
          <mxGeometry x="640" y="340" width="20" height="20" as="geometry" />
        </mxCell>
        <mxCell id="xL9UaANA7qBpwvUoug-A-92" value="" style="rounded=0;whiteSpace=wrap;html=1;strokeColor=#CCCCCC;fillColor=#60a917;fontColor=#ffffff;" parent="1" vertex="1">
          <mxGeometry x="660" y="340" width="20" height="20" as="geometry" />
        </mxCell>
        <mxCell id="xL9UaANA7qBpwvUoug-A-93" value="" style="rounded=0;whiteSpace=wrap;html=1;strokeColor=#CCCCCC;fillColor=#008a00;fontColor=#ffffff;" parent="1" vertex="1">
          <mxGeometry x="680" y="340" width="20" height="20" as="geometry" />
        </mxCell>
        <mxCell id="xL9UaANA7qBpwvUoug-A-94" value="" style="rounded=0;whiteSpace=wrap;html=1;strokeColor=#CCCCCC;" parent="1" vertex="1">
          <mxGeometry x="700" y="340" width="20" height="20" as="geometry" />
        </mxCell>
        <mxCell id="xL9UaANA7qBpwvUoug-A-95" value="" style="rounded=0;whiteSpace=wrap;html=1;strokeColor=#CCCCCC;" parent="1" vertex="1">
          <mxGeometry x="580" y="360" width="20" height="20" as="geometry" />
        </mxCell>
        <mxCell id="xL9UaANA7qBpwvUoug-A-96" value="" style="rounded=0;whiteSpace=wrap;html=1;strokeColor=#CCCCCC;" parent="1" vertex="1">
          <mxGeometry x="600" y="360" width="20" height="20" as="geometry" />
        </mxCell>
        <mxCell id="xL9UaANA7qBpwvUoug-A-97" value="" style="rounded=0;whiteSpace=wrap;html=1;strokeColor=#CCCCCC;" parent="1" vertex="1">
          <mxGeometry x="620" y="360" width="20" height="20" as="geometry" />
        </mxCell>
        <mxCell id="xL9UaANA7qBpwvUoug-A-98" value="" style="rounded=0;whiteSpace=wrap;html=1;strokeColor=#CCCCCC;" parent="1" vertex="1">
          <mxGeometry x="640" y="360" width="20" height="20" as="geometry" />
        </mxCell>
        <mxCell id="xL9UaANA7qBpwvUoug-A-99" value="" style="rounded=0;whiteSpace=wrap;html=1;strokeColor=#CCCCCC;fillColor=#60a917;fontColor=#ffffff;" parent="1" vertex="1">
          <mxGeometry x="660" y="360" width="20" height="20" as="geometry" />
        </mxCell>
        <mxCell id="xL9UaANA7qBpwvUoug-A-100" value="" style="rounded=0;whiteSpace=wrap;html=1;strokeColor=#CCCCCC;fillColor=#60a917;fontColor=#ffffff;" parent="1" vertex="1">
          <mxGeometry x="680" y="360" width="20" height="20" as="geometry" />
        </mxCell>
        <mxCell id="xL9UaANA7qBpwvUoug-A-101" value="" style="rounded=0;whiteSpace=wrap;html=1;strokeColor=#CCCCCC;fillColor=#008a00;fontColor=#ffffff;" parent="1" vertex="1">
          <mxGeometry x="700" y="360" width="20" height="20" as="geometry" />
        </mxCell>
        <mxCell id="xL9UaANA7qBpwvUoug-A-102" value="Cross-Local Attention" style="text;html=1;align=center;verticalAlign=middle;whiteSpace=wrap;rounded=0;fontFamily=Segoe UI;fontStyle=1" parent="1" vertex="1">
          <mxGeometry x="580" y="380" width="140" height="20" as="geometry" />
        </mxCell>
        <mxCell id="xL9UaANA7qBpwvUoug-A-104" value="$$\dots$$" style="text;html=1;align=center;verticalAlign=middle;whiteSpace=wrap;rounded=0;" parent="1" vertex="1">
          <mxGeometry x="660" y="179" width="30" height="30" as="geometry" />
        </mxCell>
      </root>
    </mxGraphModel>
  </diagram>
</mxfile>
